#N canvas 60 22 568 856 10;
#X obj -52 54 sendOSC;
#X msg -123 7 connect localhost 9124;
#X floatatom -297 113 5 0 0 0 - - -;
#X obj -294 80 hsl 300 30 1 127 0 0 empty empty empty -2 -8 0 10 -262144
-1 -1 8400 1;
#X obj -297 156 s \$0-sendout;
#X obj -56 31 r \$0-sendout;
#X msg -297 135 send /set/float MAX_GRAV_FORCE \$1;
#X floatatom -298 209 8 0 0 0 - - -;
#X obj -295 176 hsl 300 30 5000 50000 0 0 empty empty empty -2 -8 0
10 -262144 -1 -1 18400 1;
#X obj -298 252 s \$0-sendout;
#X msg -298 231 send /set/float HAND_FORCE \$1;
#X floatatom -299 307 8 0 0 0 - - -;
#X obj -296 274 hsl 300 30 1 500 0 0 empty empty empty -2 -8 0 10 -262144
-1 -1 13100 1;
#X obj -299 350 s \$0-sendout;
#X msg -299 329 send /set/float BALL_FORCE \$1;
#X text -277 52 FORCE STUFF;
#X text -258 452 VISUAL STUFF;
#X floatatom -299 506 8 0 0 0 - - -;
#X obj -296 473 hsl 300 30 1 20 0 0 empty empty empty -2 -8 0 10 -262144
-1 -1 5800 1;
#X obj -299 549 s \$0-sendout;
#X floatatom -300 603 8 0 0 0 - - -;
#X obj -297 570 hsl 300 30 2 30 0 0 empty empty empty -2 -8 0 10 -262144
-1 -1 17400 1;
#X obj -300 646 s \$0-sendout;
#X msg -299 528 send /set/float BALL_SIZE \$1;
#X msg -300 625 send /set/int MAX_TRAIL_LENGTH \$1;
#X floatatom -300 701 8 0 0 0 - - -;
#X obj -297 668 hsl 300 30 1 4000 0 0 empty empty empty -2 -8 0 10
-262144 -1 -1 8400 1;
#X obj -300 744 s \$0-sendout;
#X msg -300 723 send /set/int PARTICLES_PER_FRAME \$1;
#X floatatom -299 800 5 0 0 0 - - -;
#X obj -296 767 hsl 300 30 0 10 0 0 empty empty empty -2 -8 0 10 -262144
-1 -1 6000 1;
#X obj -299 843 s \$0-sendout;
#X obj 94 28 bng 100 250 50 0 empty empty empty 17 7 0 10 -262144 -1
-1;
#X text 89 8 GIANT RESET BUTTON;
#X msg 94 138 send /RESET;
#X obj 94 162 s \$0-sendout;
#X msg -299 822 send /set/float PARTICLE_SCALE \$1;
#X floatatom 22 549 8 0 0 0 - - -;
#X obj -83 513 hsl 300 30 0 3 0 0 empty empty empty -2 -8 0 10 -262144
-1 -1 12200 1;
#X obj 22 592 s \$0-sendout;
#X msg 22 571 send /set/float BALL_VIZ_SIZE \$1;
#X floatatom 32 249 8 0 0 0 - - -;
#X obj -73 213 hsl 300 30 1 100 0 0 empty empty empty -2 -8 0 10 -262144
-1 -1 12400 1;
#X obj 32 292 s \$0-sendout;
#X msg 32 271 send /set/int MAX_PARTICLES \$1;
#X floatatom 30 348 8 0 0 0 - - -;
#X obj -75 312 hsl 300 30 1 2000 0 0 empty empty empty -2 -8 0 10 -262144
-1 -1 4400 1;
#X obj 30 391 s \$0-sendout;
#X msg 30 370 send /set/int PARTICLE_LIFE \$1;
#X floatatom -71 392 8 0 0 0 - - -;
#X obj -71 435 s \$0-sendout;
#X msg -71 414 send /set/int ONSCREEN_SCALE \$1;
#X obj -71 358 tgl 30 0 empty empty empty 17 7 0 10 -262144 -1 -1 0
1;
#X floatatom 29 653 8 0 0 0 - - -;
#X obj -76 617 hsl 300 30 0 255 0 0 empty empty empty -2 -8 0 10 -262144
-1 -1 0 1;
#X obj 29 696 s \$0-sendout;
#X msg 29 675 send /set/float BALL_ALPHA \$1;
#X connect 1 0 0 0;
#X connect 2 0 6 0;
#X connect 3 0 2 0;
#X connect 5 0 0 0;
#X connect 6 0 4 0;
#X connect 7 0 10 0;
#X connect 8 0 7 0;
#X connect 10 0 9 0;
#X connect 11 0 14 0;
#X connect 12 0 11 0;
#X connect 14 0 13 0;
#X connect 17 0 23 0;
#X connect 18 0 17 0;
#X connect 20 0 24 0;
#X connect 21 0 20 0;
#X connect 23 0 19 0;
#X connect 24 0 22 0;
#X connect 25 0 28 0;
#X connect 26 0 25 0;
#X connect 28 0 27 0;
#X connect 29 0 36 0;
#X connect 30 0 29 0;
#X connect 32 0 34 0;
#X connect 34 0 35 0;
#X connect 36 0 31 0;
#X connect 37 0 40 0;
#X connect 38 0 37 0;
#X connect 40 0 39 0;
#X connect 41 0 44 0;
#X connect 42 0 41 0;
#X connect 44 0 43 0;
#X connect 45 0 48 0;
#X connect 46 0 45 0;
#X connect 48 0 47 0;
#X connect 49 0 51 0;
#X connect 51 0 50 0;
#X connect 52 0 49 0;
#X connect 53 0 56 0;
#X connect 54 0 53 0;
#X connect 56 0 55 0;
