#N canvas 206 503 648 453 10;
#X obj 183 352 outlet~;
#X obj 278 351 outlet~;
#X obj 121 222 noise~;
#X obj 357 227 noise~;
#X obj 196 62 unpack f;
#X obj 185 222 mtof;
#X obj 179 23 inlet;
#X floatatom 267 198 5 0 0 0 - - -;
#X obj 165 138 abs;
#X obj 243 230 mtof;
#X obj 275 267 bp~ 400 1.3;
#X obj 225 199 + 65;
#X obj 129 257 bp~ 400 0.7;
#X obj 176 199 + 55;
#X obj 162 93 mod 400;
#X obj 161 116 - 200;
#X obj 169 158 / 15;
#X connect 2 0 12 0;
#X connect 3 0 10 0;
#X connect 4 0 14 0;
#X connect 5 0 12 1;
#X connect 6 0 4 0;
#X connect 8 0 16 0;
#X connect 9 0 10 1;
#X connect 10 0 1 0;
#X connect 11 0 9 0;
#X connect 12 0 0 0;
#X connect 13 0 5 0;
#X connect 14 0 15 0;
#X connect 15 0 8 0;
#X connect 16 0 7 0;
#X connect 16 0 11 0;
#X connect 16 0 13 0;
