#N canvas 0 22 450 300 10;
#X obj 117 244 outlet~;
#X obj 180 244 outlet~;
#X obj 117 181 rjlib/e_pan;
#X obj 117 30 inlet;
#X obj 202 214 *~ 1;
#X obj 158 216 *~ 1;
#X obj 305 150 loadbang;
#X obj 303 175 0;
#X obj 341 106 r RESET;
#X obj 117 55 unpack f f f f f f f;
#X obj 117 130 arpeggio asd fasdf asdf;
#X connect 2 0 5 0;
#X connect 2 1 4 0;
#X connect 3 0 9 0;
#X connect 4 0 1 0;
#X connect 5 0 0 0;
#X connect 6 0 7 0;
#X connect 7 0 5 1;
#X connect 7 0 4 1;
#X connect 8 0 7 0;
#X connect 9 0 10 2;
#X connect 9 1 10 3;
#X connect 9 2 10 4;
#X connect 9 3 2 1;
#X connect 9 3 10 1;
#X connect 9 4 5 1;
#X connect 9 4 4 1;
#X connect 9 5 10 5;
#X connect 9 6 10 6;
#X connect 10 0 2 0;
