#N canvas 272 209 1090 644 10;
#X obj 43 340 -~ 0.5;
#X obj 129 340 -~ 0.5;
#X obj 98 409 *~ 0.3;
#X obj 102 285 +~ 1;
#X obj 128 312 phasor~;
#X obj 78 144 mtof;
#X floatatom 78 120 5 0 0 0 - - -;
#X obj 74 89 inlet;
#X obj 398 603 outlet~;
#X obj 86 184 sig~ 990;
#X obj 193 122 inlet;
#X obj 252 146 hsl 128 15 0 127 0 0 empty empty empty -2 -8 0 10 -262144
-1 -1 0 1;
#X text 273 127 phase;
#X obj 197 157 / 10;
#X obj 141 205 * 1.001;
#X obj 536 114 metro 100;
#X msg 541 78 bang;
#X obj 533 272 tabread asteroidarpeggio;
#X obj 533 241 mod 8;
#X obj 533 200 0;
#X floatatom 534 221 5 0 0 0 - - -;
#X floatatom 531 297 5 0 0 0 - - -;
#X obj 560 199 + 0.1;
#X obj 530 323 + 50;
#X obj 567 142 hsl 128 15 0 127 0 0 empty empty empty -2 -8 0 10 -262144
-1 -1 0 1;
#X obj 566 160 / 100;
#X obj 593 79 hsl 128 15 0 400 0 0 empty empty empty -2 -8 0 10 -262144
-1 -1 0 1;
#X obj 42 312 osc~;
#X obj 421 143 inlet;
#X obj 479 46 inlet;
#X obj 712 28 inlet;
#X obj 470 447 vline~;
#X obj 398 556 *~;
#X floatatom 598 103 5 0 0 0 - - -;
#X obj 532 379 pack f f f;
#X msg 458 413 1 \$2 \, 0 \$3 \$2;
#X obj 572 347 / 2.3;
#X obj 611 347 * 0.8;
#X obj 649 29 loadbang;
#X obj 650 56 122;
#X obj 515 57 loadbang;
#X obj 382 512 rjlib/c_xfade;
#X obj 779 58 inlet;
#X obj 105 380 bp~ 660 3;
#X obj 751 166 * 1000;
#X obj 749 202 + 600;
#X obj 398 580 *~ 1;
#X obj 922 145 hsl 128 15 0 127 0 0 empty empty empty -2 -8 0 10 -262144
-1 -1 0 1;
#X obj 919 173 / 127;
#X obj 863 215 send \$0-height;
#X obj 835 56 r \$0-height;
#X text 10 68 the base note. we don't send to this inlet anymore.;
#X text 159 101 the phase or tone. not being used right now;
#X text 369 121 base note of arpeggio;
#X text 464 26 speed of the metronome;
#X text 653 9 spacing of the notes;
#X obj 946 44 inlet;
#X text 935 29;
#X text 774 37 filter tone X;
#X text 936 22 filter tone Y;
#X text 705 281 this is a work in progress.;
#X text 709 307 SEQUENCER:;
#X text 712 325 essentially it's a metronome that adds X to the current
note every time. when it overflows to the next note \, it'll play that.
If X=1 \, then it's a normal sequencer. if X=0.5 \, it'll play each
note twice. If X=2 \, it'll skip every other note.;
#X text 0 529 TONE.;
#X text 3 548 this is the biggest work in progress. I've been experimenting
with better tones for a while \, but without much luck. we need a synth
that can respond to toneX and toneY really well \, while always sounding
like the same synth.;
#X connect 0 0 2 0;
#X connect 1 0 43 0;
#X connect 2 0 41 0;
#X connect 3 0 4 0;
#X connect 4 0 1 0;
#X connect 5 0 9 0;
#X connect 6 0 5 0;
#X connect 7 0 6 0;
#X connect 9 0 3 0;
#X connect 9 0 27 0;
#X connect 10 0 13 0;
#X connect 11 0 13 0;
#X connect 13 0 14 0;
#X connect 14 0 3 1;
#X connect 15 0 19 0;
#X connect 16 0 15 0;
#X connect 17 0 21 0;
#X connect 18 0 17 0;
#X connect 19 0 20 0;
#X connect 19 0 22 0;
#X connect 20 0 18 0;
#X connect 21 0 23 0;
#X connect 22 0 19 1;
#X connect 23 0 6 0;
#X connect 23 0 34 0;
#X connect 24 0 25 0;
#X connect 25 0 22 1;
#X connect 26 0 33 0;
#X connect 27 0 0 0;
#X connect 28 0 23 1;
#X connect 29 0 33 0;
#X connect 30 0 22 1;
#X connect 31 0 32 1;
#X connect 32 0 46 0;
#X connect 33 0 15 1;
#X connect 33 0 36 0;
#X connect 33 0 37 0;
#X connect 34 0 35 0;
#X connect 35 0 31 0;
#X connect 36 0 34 1;
#X connect 37 0 34 2;
#X connect 38 0 39 0;
#X connect 39 0 33 0;
#X connect 40 0 15 0;
#X connect 41 0 32 0;
#X connect 42 0 44 0;
#X connect 43 0 2 0;
#X connect 44 0 45 0;
#X connect 45 0 43 1;
#X connect 46 0 8 0;
#X connect 47 0 48 0;
#X connect 48 0 49 0;
#X connect 50 0 44 0;
#X connect 50 0 41 2;
