#N canvas 0 22 450 300 10;
#X obj 117 244 outlet~;
#X obj 180 244 outlet~;
#X obj 117 181 rjlib/e_pan;
#X obj 117 30 inlet;
#X obj 117 130 arpeggio;
#X obj 202 214 *~ 1;
#X obj 158 216 *~ 1;
#X obj 117 55 unpack f f f f f;
#X obj 305 150 loadbang;
#X obj 303 175 0;
#X obj 341 106 r RESET;
#X connect 2 0 6 0;
#X connect 2 1 5 0;
#X connect 3 0 7 0;
#X connect 4 0 2 0;
#X connect 5 0 1 0;
#X connect 6 0 0 0;
#X connect 7 0 4 2;
#X connect 7 1 4 3;
#X connect 7 2 4 4;
#X connect 7 3 2 1;
#X connect 7 3 4 1;
#X connect 7 4 6 1;
#X connect 7 4 5 1;
#X connect 8 0 9 0;
#X connect 9 0 6 1;
#X connect 9 0 5 1;
#X connect 10 0 9 0;
