#N canvas 273 35 1090 644 10;
#X obj 43 340 -~ 0.5;
#X obj 129 340 -~ 0.5;
#X obj 98 409 *~ 0.3;
#X obj 102 285 +~ 1;
#X obj 128 312 phasor~;
#X obj 78 144 mtof;
#X floatatom 78 120 5 0 0 0 - - -;
#X text 181 44 put midi number of high tone here (A Major chord preferred)
;
#X obj 193 334 organ;
#X obj 369 634 *~ 0.2;
#X obj 74 89 inlet;
#X obj 369 660 outlet~;
#X obj 142 232 +~ 12;
#X obj 86 184 sig~ 990;
#X obj 193 122 inlet;
#X obj 252 146 hsl 128 15 0 127 0 0 empty empty empty -2 -8 0 10 -262144
-1 -1 0 1;
#X text 273 127 phase;
#X obj 197 157 / 10;
#X obj 181 210 * 2.1;
#X obj 141 205 * 1.001;
#X obj 536 114 metro 100;
#X msg 541 78 bang;
#X obj 533 272 tabread asteroidarpeggio;
#X obj 533 241 mod 8;
#X obj 533 200 0;
#X floatatom 534 221 5 0 0 0 - - -;
#X floatatom 531 297 5 0 0 0 - - -;
#X obj 560 199 + 0.1;
#X obj 530 323 + 50;
#X obj 567 142 hsl 128 15 0 127 0 0 empty empty empty -2 -8 0 10 -262144
-1 -1 0 1;
#X obj 566 160 / 100;
#X obj 593 79 hsl 128 15 0 400 0 0 empty empty empty -2 -8 0 10 -262144
-1 -1 0 1;
#X obj 42 312 osc~;
#X obj 469 86 inlet;
#X obj 540 26 inlet;
#X obj 726 16 inlet;
#X obj 470 447 vline~;
#X obj 354 598 *~;
#X floatatom 598 103 5 0 0 0 - - -;
#X obj 532 379 pack f f f;
#X msg 458 413 1 \$2 \, 0 \$3 \$2;
#X obj 572 347 / 2.3;
#X obj 611 347 * 0.8;
#X obj 649 29 loadbang;
#X obj 650 56 122;
#X obj 515 80 loadbang;
#X obj 338 554 rjlib/c_xfade;
#X obj 780 44 inlet;
#X obj 105 380 bp~ 660 3;
#X obj 751 166 * 1000;
#X obj 749 202 + 600;
#X obj 878 63 inlet;
#X obj 271 325 osc~;
#X obj 274 275 sig~;
#X obj 315 279 sig~;
#X obj 303 404 *~ 0.3;
#X obj 271 248 mtof;
#X obj 315 255 mtof;
#X obj 273 216 + 24;
#X obj 313 219 + 27;
#X obj 319 326 tri~;
#X connect 0 0 2 0;
#X connect 1 0 48 0;
#X connect 2 0 46 0;
#X connect 3 0 4 0;
#X connect 4 0 1 0;
#X connect 5 0 13 0;
#X connect 6 0 5 0;
#X connect 6 0 58 0;
#X connect 6 0 59 0;
#X connect 9 0 11 0;
#X connect 10 0 6 0;
#X connect 12 0 8 0;
#X connect 13 0 3 0;
#X connect 13 0 12 0;
#X connect 13 0 32 0;
#X connect 14 0 17 0;
#X connect 15 0 17 0;
#X connect 17 0 18 0;
#X connect 17 0 19 0;
#X connect 18 0 12 1;
#X connect 19 0 3 1;
#X connect 20 0 24 0;
#X connect 21 0 20 0;
#X connect 22 0 26 0;
#X connect 23 0 22 0;
#X connect 24 0 25 0;
#X connect 24 0 27 0;
#X connect 25 0 23 0;
#X connect 26 0 28 0;
#X connect 27 0 24 1;
#X connect 28 0 6 0;
#X connect 28 0 39 0;
#X connect 29 0 30 0;
#X connect 30 0 27 1;
#X connect 31 0 38 0;
#X connect 32 0 0 0;
#X connect 33 0 28 1;
#X connect 34 0 38 0;
#X connect 35 0 27 1;
#X connect 36 0 37 1;
#X connect 37 0 9 0;
#X connect 38 0 20 1;
#X connect 38 0 41 0;
#X connect 38 0 42 0;
#X connect 39 0 40 0;
#X connect 40 0 36 0;
#X connect 41 0 39 1;
#X connect 42 0 39 2;
#X connect 43 0 44 0;
#X connect 44 0 38 0;
#X connect 45 0 20 0;
#X connect 46 0 37 0;
#X connect 47 0 49 0;
#X connect 48 0 2 0;
#X connect 49 0 50 0;
#X connect 50 0 48 1;
#X connect 51 0 46 2;
#X connect 52 0 55 0;
#X connect 53 0 52 0;
#X connect 54 0 60 0;
#X connect 55 0 46 1;
#X connect 56 0 53 0;
#X connect 57 0 54 0;
#X connect 58 0 56 0;
#X connect 59 0 57 0;
#X connect 60 0 55 0;
