#N canvas 50 55 774 792 10;
#X obj 82 37 inlet;
#X obj 82 736 outlet~;
#X obj 247 736 outlet~;
#X obj 82 69 unpack f f f f f f;
#X text 219 18 1: id 2: x 3: y 4: curvature 5: force magnitude 6: hue
;
#X obj 82 560 mod 4;
#N canvas 403 22 839 847 thesynths 1;
#X obj 57 26 inlet;
#X obj 58 771 outlet~;
#X obj 139 772 outlet~;
#X obj 58 96 route 0 1 2 3 4 5;
#X obj 87 449 arpeggiowrapper;
#X obj 77 469 arpeggiowrapper;
#X obj 68 489 arpeggiowrapper;
#X obj 58 509 arpeggiowrapper;
#X connect 0 0 3 0;
#X connect 3 0 7 0;
#X connect 3 1 6 0;
#X connect 3 2 5 0;
#X connect 3 3 4 0;
#X connect 4 0 1 0;
#X connect 4 1 2 0;
#X connect 5 0 1 0;
#X connect 5 1 2 0;
#X connect 6 0 1 0;
#X connect 6 1 2 0;
#X connect 7 0 1 0;
#X connect 7 1 2 0;
#X restore 82 639 pd thesynths;
#X text 218 579 1: synthid 2: high note midi 3: low note midi 4: crossfade
5: pan;
#X obj 82 598 pack f f f f f;
#N canvas 0 22 450 278 (subpatch) 0;
#X array asteroidnotes 100 float 3;
#A 0 0 5 7 12 0 3 5 7 9 12 0 5 7 12 0 7 12 17 0 3 5 7 9 12 17 19 24
0 0 0 0 0 0 0 0 0 0 0 0 0 0 0 0 0 0 0 0 0 0 0 0 0 0 0 0 0 0 0 0 0 0
0 0 0 0 0 0 0 0 0 0 0 0 0 0 0 0 0 0 0 0 0 0 0 0 0 0 0 0 0 0 0 0 0 0
0 0 0 0 0;
#X coords 0 0 100 100 200 140 1 0 0;
#X restore 331 139 graph;
#X obj 82 113 t f f f;
#X obj 101 264 mod 26;
#X obj 102 346 + 30;
#X obj 122 377 + 54;
#X obj 163 151 / 640;
#X obj 82 688 *~ 0.01;
#X obj 190 693 *~ 0.01;
#X obj 101 297 tabread asteroidnotes;
#X obj 142 113 / 53;
#N canvas 0 22 450 278 (subpatch) 0;
#X array asteroidarpeggio 8 float 3;
#A 0 0 5 15 10 5 20 0 10;
#X coords 0 0 8 24 200 140 1 0 0;
#X restore 338 346 graph;
#X connect 0 0 3 0;
#X connect 3 0 10 0;
#X connect 3 1 14 0;
#X connect 3 4 18 0;
#X connect 5 0 8 0;
#X connect 6 0 15 0;
#X connect 6 1 16 0;
#X connect 8 0 6 0;
#X connect 10 0 5 0;
#X connect 10 1 11 0;
#X connect 11 0 17 0;
#X connect 12 0 8 1;
#X connect 13 0 8 2;
#X connect 14 0 8 4;
#X connect 15 0 1 0;
#X connect 16 0 2 0;
#X connect 17 0 12 0;
#X connect 17 0 13 0;
#X connect 18 0 8 3;
