#N canvas 321 53 774 792 10;
#X obj 82 37 inlet;
#X obj 82 736 outlet~;
#X obj 247 736 outlet~;
#X text 219 18 1: id 2: x 3: y 4: curvature 5: force magnitude 6: hue
;
#N canvas 403 22 839 847 thesynths 0;
#X obj 57 26 inlet;
#X obj 58 771 outlet~;
#X obj 139 772 outlet~;
#N canvas 756 339 450 300 lots 0;
#X obj 67 36 inlet;
#X obj 68 781 outlet~;
#X obj 149 782 outlet~;
#X obj 177 299 arpeggiowrapper;
#X obj 11 106 route 0 1 2 3 4 5 6 7 8 9 10 11;
#X obj 97 459 arpeggiowrapper;
#X obj 87 479 arpeggiowrapper;
#X obj 78 499 arpeggiowrapper;
#X obj 68 519 arpeggiowrapper;
#X obj 135 379 arpeggiowrapper;
#X obj 125 399 arpeggiowrapper;
#X obj 116 419 arpeggiowrapper;
#X obj 106 439 arpeggiowrapper;
#X obj 167 319 arpeggiowrapper;
#X obj 158 339 arpeggiowrapper;
#X obj 148 359 arpeggiowrapper;
#X connect 0 0 4 0;
#X connect 3 0 1 0;
#X connect 3 1 2 0;
#X connect 4 0 8 0;
#X connect 4 1 7 0;
#X connect 4 2 6 0;
#X connect 4 3 5 0;
#X connect 4 4 12 0;
#X connect 4 5 11 0;
#X connect 4 6 10 0;
#X connect 4 7 9 0;
#X connect 4 8 15 0;
#X connect 4 9 14 0;
#X connect 4 10 13 0;
#X connect 4 11 3 0;
#X connect 5 0 1 0;
#X connect 5 1 2 0;
#X connect 6 0 1 0;
#X connect 6 1 2 0;
#X connect 7 0 1 0;
#X connect 7 1 2 0;
#X connect 8 0 1 0;
#X connect 8 1 2 0;
#X connect 9 0 1 0;
#X connect 9 1 2 0;
#X connect 10 0 1 0;
#X connect 10 1 2 0;
#X connect 11 0 1 0;
#X connect 11 1 2 0;
#X connect 12 0 1 0;
#X connect 12 1 2 0;
#X connect 13 0 1 0;
#X connect 13 1 2 0;
#X connect 14 0 1 0;
#X connect 14 1 2 0;
#X connect 15 0 1 0;
#X connect 15 1 2 0;
#X restore 119 440 pd lots;
#X obj 173 112 route 0 1 2 3;
#N canvas 756 339 450 300 lots 0;
#X obj 67 36 inlet;
#X obj 68 781 outlet~;
#X obj 149 782 outlet~;
#X obj 177 299 arpeggiowrapper;
#X obj 11 106 route 0 1 2 3 4 5 6 7 8 9 10 11;
#X obj 97 459 arpeggiowrapper;
#X obj 87 479 arpeggiowrapper;
#X obj 78 499 arpeggiowrapper;
#X obj 68 519 arpeggiowrapper;
#X obj 135 379 arpeggiowrapper;
#X obj 125 399 arpeggiowrapper;
#X obj 116 419 arpeggiowrapper;
#X obj 106 439 arpeggiowrapper;
#X obj 167 319 arpeggiowrapper;
#X obj 158 339 arpeggiowrapper;
#X obj 148 359 arpeggiowrapper;
#X connect 0 0 4 0;
#X connect 3 0 1 0;
#X connect 3 1 2 0;
#X connect 4 0 8 0;
#X connect 4 1 7 0;
#X connect 4 2 6 0;
#X connect 4 3 5 0;
#X connect 4 4 12 0;
#X connect 4 5 11 0;
#X connect 4 6 10 0;
#X connect 4 7 9 0;
#X connect 4 8 15 0;
#X connect 4 9 14 0;
#X connect 4 10 13 0;
#X connect 4 11 3 0;
#X connect 5 0 1 0;
#X connect 5 1 2 0;
#X connect 6 0 1 0;
#X connect 6 1 2 0;
#X connect 7 0 1 0;
#X connect 7 1 2 0;
#X connect 8 0 1 0;
#X connect 8 1 2 0;
#X connect 9 0 1 0;
#X connect 9 1 2 0;
#X connect 10 0 1 0;
#X connect 10 1 2 0;
#X connect 11 0 1 0;
#X connect 11 1 2 0;
#X connect 12 0 1 0;
#X connect 12 1 2 0;
#X connect 13 0 1 0;
#X connect 13 1 2 0;
#X connect 14 0 1 0;
#X connect 14 1 2 0;
#X connect 15 0 1 0;
#X connect 15 1 2 0;
#X restore 180 437 pd lots;
#N canvas 756 339 450 300 lots 0;
#X obj 67 36 inlet;
#X obj 68 781 outlet~;
#X obj 149 782 outlet~;
#X obj 177 299 arpeggiowrapper;
#X obj 11 106 route 0 1 2 3 4 5 6 7 8 9 10 11;
#X obj 97 459 arpeggiowrapper;
#X obj 87 479 arpeggiowrapper;
#X obj 78 499 arpeggiowrapper;
#X obj 68 519 arpeggiowrapper;
#X obj 135 379 arpeggiowrapper;
#X obj 125 399 arpeggiowrapper;
#X obj 116 419 arpeggiowrapper;
#X obj 106 439 arpeggiowrapper;
#X obj 167 319 arpeggiowrapper;
#X obj 158 339 arpeggiowrapper;
#X obj 148 359 arpeggiowrapper;
#X connect 0 0 4 0;
#X connect 3 0 1 0;
#X connect 3 1 2 0;
#X connect 4 0 8 0;
#X connect 4 1 7 0;
#X connect 4 2 6 0;
#X connect 4 3 5 0;
#X connect 4 4 12 0;
#X connect 4 5 11 0;
#X connect 4 6 10 0;
#X connect 4 7 9 0;
#X connect 4 8 15 0;
#X connect 4 9 14 0;
#X connect 4 10 13 0;
#X connect 4 11 3 0;
#X connect 5 0 1 0;
#X connect 5 1 2 0;
#X connect 6 0 1 0;
#X connect 6 1 2 0;
#X connect 7 0 1 0;
#X connect 7 1 2 0;
#X connect 8 0 1 0;
#X connect 8 1 2 0;
#X connect 9 0 1 0;
#X connect 9 1 2 0;
#X connect 10 0 1 0;
#X connect 10 1 2 0;
#X connect 11 0 1 0;
#X connect 11 1 2 0;
#X connect 12 0 1 0;
#X connect 12 1 2 0;
#X connect 13 0 1 0;
#X connect 13 1 2 0;
#X connect 14 0 1 0;
#X connect 14 1 2 0;
#X connect 15 0 1 0;
#X connect 15 1 2 0;
#X restore 239 436 pd lots;
#N canvas 756 339 450 300 lots 0;
#X obj 67 36 inlet;
#X obj 68 781 outlet~;
#X obj 149 782 outlet~;
#X obj 177 299 arpeggiowrapper;
#X obj 11 106 route 0 1 2 3 4 5 6 7 8 9 10 11;
#X obj 97 459 arpeggiowrapper;
#X obj 87 479 arpeggiowrapper;
#X obj 78 499 arpeggiowrapper;
#X obj 68 519 arpeggiowrapper;
#X obj 135 379 arpeggiowrapper;
#X obj 125 399 arpeggiowrapper;
#X obj 116 419 arpeggiowrapper;
#X obj 106 439 arpeggiowrapper;
#X obj 167 319 arpeggiowrapper;
#X obj 158 339 arpeggiowrapper;
#X obj 148 359 arpeggiowrapper;
#X connect 0 0 4 0;
#X connect 3 0 1 0;
#X connect 3 1 2 0;
#X connect 4 0 8 0;
#X connect 4 1 7 0;
#X connect 4 2 6 0;
#X connect 4 3 5 0;
#X connect 4 4 12 0;
#X connect 4 5 11 0;
#X connect 4 6 10 0;
#X connect 4 7 9 0;
#X connect 4 8 15 0;
#X connect 4 9 14 0;
#X connect 4 10 13 0;
#X connect 4 11 3 0;
#X connect 5 0 1 0;
#X connect 5 1 2 0;
#X connect 6 0 1 0;
#X connect 6 1 2 0;
#X connect 7 0 1 0;
#X connect 7 1 2 0;
#X connect 8 0 1 0;
#X connect 8 1 2 0;
#X connect 9 0 1 0;
#X connect 9 1 2 0;
#X connect 10 0 1 0;
#X connect 10 1 2 0;
#X connect 11 0 1 0;
#X connect 11 1 2 0;
#X connect 12 0 1 0;
#X connect 12 1 2 0;
#X connect 13 0 1 0;
#X connect 13 1 2 0;
#X connect 14 0 1 0;
#X connect 14 1 2 0;
#X connect 15 0 1 0;
#X connect 15 1 2 0;
#X restore 291 435 pd lots;
#X connect 0 0 4 0;
#X connect 3 0 1 0;
#X connect 3 1 2 0;
#X connect 4 0 3 0;
#X connect 4 1 5 0;
#X connect 4 2 6 0;
#X connect 4 3 7 0;
#X connect 5 0 1 0;
#X connect 5 1 2 0;
#X connect 6 0 1 0;
#X connect 6 1 2 0;
#X connect 7 0 1 0;
#X connect 7 1 2 0;
#X restore 82 639 pd thesynths;
#X text 218 579 1: synthid 2: high note midi 3: low note midi 4: crossfade
5: pan;
#N canvas 0 22 450 278 (subpatch) 0;
#X array asteroidnotes 100 float 3;
#A 0 0 5 7 12 0 3 5 7 9 12 0 5 7 12 0 7 12 17 0 3 5 7 9 12 17 19 24
0 0 0 0 0 0 0 0 0 0 0 0 0 0 0 0 0 0 0 0 0 0 0 0 0 0 0 0 0 0 0 0 0 0
0 0 0 0 0 0 0 0 0 0 0 0 0 0 0 0 0 0 0 0 0 0 0 0 0 0 0 0 0 0 0 0 0 0
0 0 0 0 0;
#X coords 0 0 100 100 200 140 1 0 0;
#X restore 313 43 graph;
#X obj 82 113 t f f f;
#X obj 179 180 / 640;
#N canvas 0 22 450 278 (subpatch) 0;
#X array asteroidarpeggio 8 float 3;
#A 0 0 5 15 10 5 20 0 10;
#X coords 0 0 8 24 200 140 1 0 0;
#X restore 338 346 graph;
#X obj 108 336 t b;
#X obj 139 191 abs;
#X obj 144 511 / 3;
#X obj 82 69 unpack f f f f f f f f;
#X obj 189 291 *;
#X obj 108 228 mod 8;
#X obj 116 259 tabread asteroidscale;
#X obj 108 398 +;
#N canvas 0 22 450 278 (subpatch) 0;
#X array asteroidscale 8 float 3;
#A 0 0 5 12 17 24 29 36 41;
#X coords 0 0 8 24 200 140 1 0 0;
#X restore 336 509 graph;
#X obj 108 358 40;
#X obj 82 688 *~ 1;
#X obj 190 693 *~ 1;
#N canvas 0 22 450 278 (subpatch) 0;
#X array asteroidenvelope 100 float 5;
#A 0 0 0.9 0.892847 0.907133 0.928562 0.928562 0.928562 0.928562 0.928562
0.928562 0.928562 0.928562 0.928562 0.928562 0.928562 0.928562 0.928562
0.928562 0.928562 0.928562 0.928562 0.928562 0.928562 0.928562 0.928562
0.928562 0.928562 0.928562 0.928562 0.928562 0.928562 0.928562 0.928562
0.928562 0.928562 0.928562 0.928562 0.928562 0.928562 0.921419 0.921419
0.914276 0.914276 0.914276 0.914276 0.899991 0.899991 0.885705 0.885705
0.885705 0.885705 0.885705 0.885705 0.885705 0.885705 0.885705 0.878562
0.871419 0.871419 0.864277 0.857134 0.857134 0.857134 0.871434 0.857148
0.850005 0.835719 0.821433 0.814291 0.800005 0.778576 0.757147 0.750004
0.728576 0.707147 0.671432 0.650004 0.521432 0.507146 0.478574 0.457146
0.428574 0.400002 0.385717 0.342859 0.328573 0.292859 0.242859 0.228573
0.192858 0.142858 0.121429 0.107144 0.0857148 0.0571432 0.0357145 0
0 0 0;
#X coords 0 0 99 1 200 140 1 0 0;
#X restore 405 193 graph;
#X obj 201 193 * 100;
#X obj 204 222 tabread4 asteroidenvelope;
#X obj 82 598 pack f f f f f f f;
#X obj 66 505 mod 48;
#X obj 70 536 t f f;
#X obj 98 571 mod 12;
#X obj 17 568 / 12;
#X obj 18 588 wrap;
#X obj 8 612 -;
#X obj 142 113 - 620;
#X obj 115 152 - 480;
#X obj 114 186 / -100;
#X obj 658 440 bng 50 250 50 0 empty empty empty 17 7 0 10 -262144
-1 -1;
#X text 669 414 reset;
#X obj 665 496 send RESET;
#X connect 0 0 13 0;
#X connect 4 0 20 0;
#X connect 4 1 21 0;
#X connect 7 0 26 0;
#X connect 7 1 10 0;
#X connect 8 0 25 5;
#X connect 10 0 19 0;
#X connect 11 0 25 3;
#X connect 12 0 25 4;
#X connect 13 0 7 0;
#X connect 13 1 8 0;
#X connect 13 2 33 0;
#X connect 13 4 32 0;
#X connect 13 5 12 0;
#X connect 13 6 14 0;
#X connect 13 7 23 0;
#X connect 14 0 25 6;
#X connect 15 0 16 0;
#X connect 16 0 17 1;
#X connect 17 0 25 2;
#X connect 19 0 17 0;
#X connect 20 0 1 0;
#X connect 21 0 2 0;
#X connect 23 0 24 0;
#X connect 24 0 14 1;
#X connect 25 0 4 0;
#X connect 26 0 27 0;
#X connect 27 0 29 0;
#X connect 27 1 28 0;
#X connect 28 0 25 1;
#X connect 29 0 30 0;
#X connect 29 0 31 0;
#X connect 30 0 31 1;
#X connect 31 0 25 0;
#X connect 32 0 11 0;
#X connect 33 0 34 0;
#X connect 34 0 15 0;
#X connect 35 0 37 0;
