#N canvas 254 65 774 792 10;
#X obj 82 37 inlet;
#X obj 82 738 outlet~;
#X obj 151 738 outlet~;
#X text 162 21 1: id 2: x 3: y 4: curvature 5: force magnitude 6: hue
;
#N canvas 403 22 839 847 thesynths 0;
#X obj 57 26 inlet;
#X obj 58 771 outlet~;
#X obj 139 772 outlet~;
#N canvas 756 339 450 300 lots 0;
#X obj 67 36 inlet;
#X obj 68 781 outlet~;
#X obj 149 782 outlet~;
#X obj 11 106 route 0 1 2 3 4 5 6 7 8 9 10 11;
#X obj 68 519 arpeggiowrapper;
#X obj 177 299 arpeggiowrapper;
#X obj 97 459 arpeggiowrapper;
#X obj 87 479 arpeggiowrapper;
#X obj 78 499 arpeggiowrapper;
#X obj 135 379 arpeggiowrapper;
#X obj 125 399 arpeggiowrapper;
#X obj 116 419 arpeggiowrapper;
#X obj 106 439 arpeggiowrapper;
#X obj 167 319 arpeggiowrapper;
#X obj 158 339 arpeggiowrapper;
#X obj 148 359 arpeggiowrapper;
#X connect 0 0 3 0;
#X connect 3 0 4 0;
#X connect 3 1 8 0;
#X connect 3 2 7 0;
#X connect 3 3 6 0;
#X connect 3 4 12 0;
#X connect 3 5 11 0;
#X connect 3 6 10 0;
#X connect 3 7 9 0;
#X connect 3 8 15 0;
#X connect 3 9 14 0;
#X connect 3 10 13 0;
#X connect 3 11 5 0;
#X connect 4 0 1 0;
#X connect 4 1 2 0;
#X connect 5 0 1 0;
#X connect 5 1 2 0;
#X connect 6 0 1 0;
#X connect 6 1 2 0;
#X connect 7 0 1 0;
#X connect 7 1 2 0;
#X connect 8 0 1 0;
#X connect 8 1 2 0;
#X connect 9 0 1 0;
#X connect 9 1 2 0;
#X connect 10 0 1 0;
#X connect 10 1 2 0;
#X connect 11 0 1 0;
#X connect 11 1 2 0;
#X connect 12 0 1 0;
#X connect 12 1 2 0;
#X connect 13 0 1 0;
#X connect 13 1 2 0;
#X connect 14 0 1 0;
#X connect 14 1 2 0;
#X connect 15 0 1 0;
#X connect 15 1 2 0;
#X restore 119 440 pd lots;
#X obj 173 112 route 0 1 2 3;
#N canvas 756 339 450 300 lots 0;
#X obj 67 36 inlet;
#X obj 68 781 outlet~;
#X obj 149 782 outlet~;
#X obj 11 106 route 0 1 2 3 4 5 6 7 8 9 10 11;
#X obj 177 299 arpeggiowrapper;
#X obj 97 459 arpeggiowrapper;
#X obj 87 479 arpeggiowrapper;
#X obj 78 499 arpeggiowrapper;
#X obj 68 519 arpeggiowrapper;
#X obj 135 379 arpeggiowrapper;
#X obj 125 399 arpeggiowrapper;
#X obj 116 419 arpeggiowrapper;
#X obj 106 439 arpeggiowrapper;
#X obj 167 319 arpeggiowrapper;
#X obj 158 339 arpeggiowrapper;
#X obj 148 359 arpeggiowrapper;
#X connect 0 0 3 0;
#X connect 3 0 8 0;
#X connect 3 1 7 0;
#X connect 3 2 6 0;
#X connect 3 3 5 0;
#X connect 3 4 12 0;
#X connect 3 5 11 0;
#X connect 3 6 10 0;
#X connect 3 7 9 0;
#X connect 3 8 15 0;
#X connect 3 9 14 0;
#X connect 3 10 13 0;
#X connect 3 11 4 0;
#X connect 4 0 1 0;
#X connect 4 1 2 0;
#X connect 5 0 1 0;
#X connect 5 1 2 0;
#X connect 6 0 1 0;
#X connect 6 1 2 0;
#X connect 7 0 1 0;
#X connect 7 1 2 0;
#X connect 8 0 1 0;
#X connect 8 1 2 0;
#X connect 9 0 1 0;
#X connect 9 1 2 0;
#X connect 10 0 1 0;
#X connect 10 1 2 0;
#X connect 11 0 1 0;
#X connect 11 1 2 0;
#X connect 12 0 1 0;
#X connect 12 1 2 0;
#X connect 13 0 1 0;
#X connect 13 1 2 0;
#X connect 14 0 1 0;
#X connect 14 1 2 0;
#X connect 15 0 1 0;
#X connect 15 1 2 0;
#X restore 180 437 pd lots;
#N canvas 756 339 450 300 lots 0;
#X obj 67 36 inlet;
#X obj 68 781 outlet~;
#X obj 149 782 outlet~;
#X obj 11 106 route 0 1 2 3 4 5 6 7 8 9 10 11;
#X obj 177 299 arpeggiowrapper;
#X obj 97 459 arpeggiowrapper;
#X obj 87 479 arpeggiowrapper;
#X obj 78 499 arpeggiowrapper;
#X obj 68 519 arpeggiowrapper;
#X obj 135 379 arpeggiowrapper;
#X obj 125 399 arpeggiowrapper;
#X obj 116 419 arpeggiowrapper;
#X obj 106 439 arpeggiowrapper;
#X obj 167 319 arpeggiowrapper;
#X obj 158 339 arpeggiowrapper;
#X obj 148 359 arpeggiowrapper;
#X connect 0 0 3 0;
#X connect 3 0 8 0;
#X connect 3 1 7 0;
#X connect 3 2 6 0;
#X connect 3 3 5 0;
#X connect 3 4 12 0;
#X connect 3 5 11 0;
#X connect 3 6 10 0;
#X connect 3 7 9 0;
#X connect 3 8 15 0;
#X connect 3 9 14 0;
#X connect 3 10 13 0;
#X connect 3 11 4 0;
#X connect 4 0 1 0;
#X connect 4 1 2 0;
#X connect 5 0 1 0;
#X connect 5 1 2 0;
#X connect 6 0 1 0;
#X connect 6 1 2 0;
#X connect 7 0 1 0;
#X connect 7 1 2 0;
#X connect 8 0 1 0;
#X connect 8 1 2 0;
#X connect 9 0 1 0;
#X connect 9 1 2 0;
#X connect 10 0 1 0;
#X connect 10 1 2 0;
#X connect 11 0 1 0;
#X connect 11 1 2 0;
#X connect 12 0 1 0;
#X connect 12 1 2 0;
#X connect 13 0 1 0;
#X connect 13 1 2 0;
#X connect 14 0 1 0;
#X connect 14 1 2 0;
#X connect 15 0 1 0;
#X connect 15 1 2 0;
#X restore 239 436 pd lots;
#N canvas 756 339 450 300 lots 0;
#X obj 67 36 inlet;
#X obj 68 781 outlet~;
#X obj 149 782 outlet~;
#X obj 11 106 route 0 1 2 3 4 5 6 7 8 9 10 11;
#X obj 177 299 arpeggiowrapper;
#X obj 97 459 arpeggiowrapper;
#X obj 87 479 arpeggiowrapper;
#X obj 78 499 arpeggiowrapper;
#X obj 68 519 arpeggiowrapper;
#X obj 135 379 arpeggiowrapper;
#X obj 125 399 arpeggiowrapper;
#X obj 116 419 arpeggiowrapper;
#X obj 106 439 arpeggiowrapper;
#X obj 167 319 arpeggiowrapper;
#X obj 158 339 arpeggiowrapper;
#X obj 148 359 arpeggiowrapper;
#X connect 0 0 3 0;
#X connect 3 0 8 0;
#X connect 3 1 7 0;
#X connect 3 2 6 0;
#X connect 3 3 5 0;
#X connect 3 4 12 0;
#X connect 3 5 11 0;
#X connect 3 6 10 0;
#X connect 3 7 9 0;
#X connect 3 8 15 0;
#X connect 3 9 14 0;
#X connect 3 10 13 0;
#X connect 3 11 4 0;
#X connect 4 0 1 0;
#X connect 4 1 2 0;
#X connect 5 0 1 0;
#X connect 5 1 2 0;
#X connect 6 0 1 0;
#X connect 6 1 2 0;
#X connect 7 0 1 0;
#X connect 7 1 2 0;
#X connect 8 0 1 0;
#X connect 8 1 2 0;
#X connect 9 0 1 0;
#X connect 9 1 2 0;
#X connect 10 0 1 0;
#X connect 10 1 2 0;
#X connect 11 0 1 0;
#X connect 11 1 2 0;
#X connect 12 0 1 0;
#X connect 12 1 2 0;
#X connect 13 0 1 0;
#X connect 13 1 2 0;
#X connect 14 0 1 0;
#X connect 14 1 2 0;
#X connect 15 0 1 0;
#X connect 15 1 2 0;
#X restore 291 435 pd lots;
#X connect 0 0 4 0;
#X connect 3 0 1 0;
#X connect 3 1 2 0;
#X connect 4 0 3 0;
#X connect 4 1 5 0;
#X connect 4 2 6 0;
#X connect 4 3 7 0;
#X connect 5 0 1 0;
#X connect 5 1 2 0;
#X connect 6 0 1 0;
#X connect 6 1 2 0;
#X connect 7 0 1 0;
#X connect 7 1 2 0;
#X restore 82 639 pd thesynths;
#X text 218 579 1: synthid 2: high note midi 3: low note midi 4: crossfade
5: pan;
#X obj 82 113 t f f f;
#N canvas 0 22 450 278 (subpatch) 0;
#X array asteroidarpeggio 8 float 3;
#A 0 0 5 20 10 5 15 0 10;
#X coords 0 0 8 24 200 140 1 0 0;
#X restore 555 222 graph;
#X obj 82 69 unpack f f f f f f f f;
#N canvas 0 22 450 278 (subpatch) 0;
#X array asteroidscale 8 float 3;
#A 0 0 5 12 17 24 29 36 41;
#X coords 0 0 8 24 200 140 1 0 0;
#X restore 547 388 graph;
#X obj 82 708 *~ 1;
#X obj 151 708 *~ 1;
#N canvas 0 22 450 278 (subpatch) 0;
#X array asteroidenvelope 100 float 5;
#A 0 0.964275 0.957133 0.94999 0.942847 0.935704 0.928562 0.928562
0.928562 0.928562 0.928562 0.928562 0.928562 0.928562 0.928562 0.928562
0.928562 0.928562 0.928562 0.928562 0.928562 0.928562 0.928562 0.928562
0.928562 0.928562 0.928562 0.928562 0.928562 0.928562 0.928562 0.928562
0.928562 0.928562 0.928562 0.928562 0.928562 0.928562 0.928562 0.928562
0.921419 0.921419 0.914276 0.914276 0.914276 0.914276 0.899991 0.899991
0.885705 0.885705 0.885705 0.885705 0.885705 0.885705 0.885705 0.885705
0.885705 0.878562 0.871419 0.871419 0.864277 0.857134 0.857134 0.857134
0.871434 0.857148 0.850005 0.835719 0.821433 0.814291 0.800005 0.778576
0.757147 0.750004 0.728576 0.707147 0.671432 0.650004 0.521432 0.507146
0.478574 0.457146 0.428574 0.400002 0.385717 0.342859 0.328573 0.292859
0.242859 0.228573 0.192858 0.142858 0.121429 0.107144 0.0857148 0.0571432
0.0357145 0 0 0 0;
#X coords 0 0 99 1 200 140 1 0 0;
#X restore 550 57 graph;
#X obj 11 41 bng 50 250 50 0 empty empty empty 17 7 0 10 -262144 -1
-1;
#X text 22 15 reset;
#X obj 7 97 send RESET;
#N canvas 680 365 450 300 volume 0;
#X obj 26 11 inlet;
#X obj 42 216 outlet;
#X obj 89 56 * 100;
#X obj 92 85 tabread4 asteroidenvelope;
#X obj 98 19 inlet;
#X obj 77 154 * 1;
#X obj 23 70 - 0.3;
#X obj 22 109 clip 0 1;
#X connect 0 0 6 0;
#X connect 2 0 3 0;
#X connect 3 0 5 1;
#X connect 4 0 2 0;
#X connect 5 0 1 0;
#X connect 6 0 7 0;
#X connect 7 0 5 0;
#X restore 294 254 pd volume;
#N canvas 603 480 450 300 idassign 0;
#X obj 51 56 inlet;
#X obj 67 98 mod 48;
#X obj 71 129 t f f;
#X obj 99 164 mod 12;
#X obj 18 161 / 12;
#X obj 19 181 wrap;
#X obj 9 205 -;
#X obj 27 267 outlet;
#X obj 83 266 outlet;
#X connect 0 0 1 0;
#X connect 1 0 2 0;
#X connect 2 0 4 0;
#X connect 2 1 3 0;
#X connect 3 0 8 0;
#X connect 4 0 5 0;
#X connect 4 0 6 0;
#X connect 5 0 6 1;
#X connect 6 0 7 0;
#X restore 22 537 pd idassign;
#N canvas 636 540 450 300 pan 0;
#X obj 35 29 inlet;
#X obj 40 159 outlet;
#X obj 42 73 / 640;
#X obj 43 116 clip 0 1;
#X connect 0 0 2 0;
#X connect 2 0 3 0;
#X connect 3 0 1 0;
#X restore 252 294 pd pan;
#N canvas 580 593 450 300 notespeed 0;
#X obj 63 37 inlet;
#X obj 71 174 outlet;
#X obj 58 85 * 1.6;
#X connect 0 0 2 0;
#X connect 2 0 1 0;
#X restore 215 328 pd notespeed;
#N canvas 759 359 450 300 notespacing 0;
#X obj 65 15 inlet;
#X obj 67 175 outlet;
#X obj 127 136 abs;
#X obj 146 73 - 620;
#X obj 140 47 clip 0 590;
#X obj 144 104 * 1;
#X connect 0 0 4 0;
#X connect 2 0 1 0;
#X connect 3 0 5 0;
#X connect 4 0 3 0;
#X connect 5 0 2 0;
#X restore 165 379 pd notespacing;
#N canvas 716 346 455 408 basenote 0;
#X obj 40 27 inlet;
#X obj 58 341 outlet;
#X obj 84 29 inlet;
#X obj 136 241 t b;
#X obj 140 175 tabread asteroidscale;
#X obj 136 303 +;
#X obj 136 263 40;
#X obj 143 57 - 480;
#X obj 122 91 / -100;
#X obj 146 133 clip 0 8;
#X connect 0 0 3 0;
#X connect 2 0 7 0;
#X connect 3 0 6 0;
#X connect 5 0 1 0;
#X connect 6 0 5 0;
#X connect 7 0 8 0;
#X connect 8 0 9 0;
#X connect 9 0 4 0;
#X restore 94 442 pd basenote;
#N canvas 365 551 450 300 tone 0;
#X obj 46 40 inlet;
#X obj 24 245 outlet;
#X obj 117 46 inlet;
#X obj 115 185 outlet;
#X obj 118 151 / 480;
#X obj 119 104 - 480;
#X obj 120 126 abs;
#X obj 43 72 - 320;
#X obj 41 107 abs;
#X obj 41 137 / 320;
#X obj 42 167 * -1;
#X obj 41 191 + 1;
#X connect 0 0 7 0;
#X connect 2 0 5 0;
#X connect 4 0 3 0;
#X connect 5 0 6 0;
#X connect 6 0 4 0;
#X connect 7 0 8 0;
#X connect 8 0 9 0;
#X connect 9 0 10 0;
#X connect 10 0 11 0;
#X connect 11 0 1 0;
#X restore 210 466 pd tone;
#X obj 82 598 pack f f f f f f f f f;
#X obj 82 679 rjlib/e_scompressor 70 5;
#X connect 0 0 8 0;
#X connect 4 0 24 0;
#X connect 4 1 24 1;
#X connect 6 0 17 0;
#X connect 6 1 21 0;
#X connect 8 0 6 0;
#X connect 8 1 18 0;
#X connect 8 1 22 0;
#X connect 8 2 21 1;
#X connect 8 2 22 1;
#X connect 8 3 19 0;
#X connect 8 4 20 0;
#X connect 8 6 16 0;
#X connect 8 7 16 1;
#X connect 10 0 1 0;
#X connect 11 0 2 0;
#X connect 13 0 15 0;
#X connect 16 0 23 6;
#X connect 17 0 23 0;
#X connect 17 1 23 1;
#X connect 18 0 23 5;
#X connect 19 0 23 4;
#X connect 20 0 23 3;
#X connect 21 0 23 2;
#X connect 22 0 23 7;
#X connect 22 1 23 8;
#X connect 23 0 4 0;
#X connect 24 0 10 0;
#X connect 24 1 11 0;
