#N canvas 1947 296 450 300 10;
#X obj 119 -61 inlet~;
#X obj 118 -31 mtof~;
#X obj 120 209 outlet~;
#X obj 41 78 *~ 0.001;
#X obj 95 101 +~;
#X obj 163 108 +~;
#X obj 202 87 *~ 0.008;
#X obj 261 90 +~;
#X obj 270 53 *~ 0.005;
#X obj 360 51 *~ 0.003;
#X obj 341 112 -~;
#X obj 161 186 *~ 0.7;
#X obj 120 137 ahbase;
#X obj 182 140 ahbase;
#X obj 262 121 ahbase;
#X obj 324 154 ahbase;
#X obj 238 -15 +~ 12;
#X obj 271 11 mtof~;
#X connect 0 0 1 0;
#X connect 0 0 16 0;
#X connect 1 0 3 0;
#X connect 1 0 4 1;
#X connect 1 0 5 0;
#X connect 1 0 6 0;
#X connect 1 0 7 0;
#X connect 1 0 8 0;
#X connect 1 0 10 0;
#X connect 3 0 4 0;
#X connect 4 0 12 0;
#X connect 5 0 13 0;
#X connect 6 0 5 1;
#X connect 7 0 14 0;
#X connect 8 0 7 1;
#X connect 9 0 10 1;
#X connect 10 0 15 0;
#X connect 11 0 2 0;
#X connect 12 0 11 0;
#X connect 13 0 11 0;
#X connect 14 0 11 0;
#X connect 15 0 11 0;
#X connect 16 0 17 0;
#X connect 17 0 9 0;
