#N canvas 440 126 936 804 10;
#X obj -216 -5141 dumpOSC 9123;
#X obj -69 -4626 dac~;
#N canvas 618 27 450 300 freeverb 0;
#X obj 167 164 inlet~;
#X obj 163 240 outlet~;
#X obj 226 240 outlet~;
#X obj 166 206 freeverb~;
#X obj 244 78 loadbang;
#X msg 244 116 dry 0.7;
#X msg 305 117 wet 0.5;
#X obj 218 160 inlet~;
#X connect 0 0 3 0;
#X connect 3 0 1 0;
#X connect 3 1 2 0;
#X connect 4 0 5 0;
#X connect 4 0 6 0;
#X connect 5 0 3 0;
#X connect 6 0 3 0;
#X connect 7 0 3 1;
#X restore -86 -4674 pd freeverb;
#X obj -190 -5042 simplenotes;
#X obj -204 -4882 vol;
#X obj 68 -5050 ambience;
#X obj 73 -4872 vol;
#N canvas 330 22 532 576 gibberish 0;
#X obj 56 516 outlet;
#X obj 359 242 outlet;
#X msg 111 168 1;
#X msg 143 168 0;
#X text 103 100 start;
#X text 139 101 stop;
#X obj 399 191 + 1;
#X obj 373 191 1;
#X obj 373 217 pack f;
#X obj 37 166 metro 30;
#X obj 38 309 random 6;
#X obj 40 217 t b b b b;
#X obj 66 370 / 100;
#X obj 42 472 pack f f f f;
#X obj 123 255 1;
#X obj 152 256 + 1;
#X obj 123 278 mod 60;
#X obj 121 301 / 10;
#X obj 59 347 random 16000;
#X obj 68 407 - 120;
#X obj 71 445 clip 0 40;
#X obj 107 127 bng 15 250 50 0 empty empty empty 17 7 0 10 -262144
-1 -1;
#X obj 145 126 bng 15 250 50 0 empty empty empty 17 7 0 10 -262144
-1 -1;
#X connect 2 0 9 0;
#X connect 3 0 9 0;
#X connect 6 0 7 1;
#X connect 7 0 6 0;
#X connect 7 0 8 0;
#X connect 8 0 1 0;
#X connect 9 0 7 0;
#X connect 9 0 11 0;
#X connect 10 0 13 0;
#X connect 11 0 10 0;
#X connect 11 1 18 0;
#X connect 11 2 14 0;
#X connect 12 0 19 0;
#X connect 13 0 0 0;
#X connect 14 0 15 0;
#X connect 14 0 16 0;
#X connect 15 0 14 1;
#X connect 16 0 17 0;
#X connect 17 0 13 2;
#X connect 18 0 12 0;
#X connect 19 0 20 0;
#X connect 20 0 13 1;
#X connect 21 0 2 0;
#X connect 22 0 3 0;
#X coords 0 -1 1 1 85 60 2 100 100;
#X restore 168 -5122 pd gibberish;
#X obj 261 -5035 asteroids;
#X obj 246 -4867 vol;
#X obj -216 -5116 OSCroute /collision /beat /frame /asteroid;
#X obj -149 -4645 clip~ -0.99 0.99;
#X obj -26 -4644 clip~ -0.99 0.99;
#X connect 0 0 10 0;
#X connect 2 0 11 0;
#X connect 2 1 12 0;
#X connect 3 0 4 0;
#X connect 3 0 4 1;
#X connect 5 0 6 0;
#X connect 5 1 6 1;
#X connect 7 0 3 0;
#X connect 7 1 5 0;
#X connect 8 0 9 0;
#X connect 8 1 9 1;
#X connect 9 0 2 0;
#X connect 9 1 2 1;
#X connect 10 3 8 0;
#X connect 11 0 1 0;
#X connect 12 0 1 1;
