#N canvas 683 404 936 804 10;
#X obj -216 -5141 dumpOSC 9123;
#X obj -80 -4442 dac~;
#N canvas 618 27 450 300 freeverb 0;
#X obj 167 164 inlet~;
#X obj 163 240 outlet~;
#X obj 226 240 outlet~;
#X obj 166 206 freeverb~;
#X obj 244 78 loadbang;
#X msg 305 117 wet 0.5;
#X obj 218 160 inlet~;
#X msg 313 146 roomsize 0.93;
#X msg 244 116 dry 0.4;
#X msg 324 171 damping 0.1;
#X connect 0 0 3 0;
#X connect 3 0 1 0;
#X connect 3 1 2 0;
#X connect 4 0 8 0;
#X connect 4 0 5 0;
#X connect 4 0 7 0;
#X connect 4 0 9 0;
#X connect 5 0 3 0;
#X connect 6 0 3 1;
#X connect 7 0 3 0;
#X connect 8 0 3 0;
#X connect 9 0 3 0;
#X restore -86 -4674 pd freeverb;
#X obj -190 -5042 simplenotes;
#X obj -204 -4882 vol;
#X obj 68 -5050 ambience;
#X obj 73 -4872 vol;
#X obj 261 -5035 asteroids;
#X obj 246 -4867 vol;
#X obj -216 -5116 OSCroute /collision /beat /frame /asteroid;
#X obj -149 -4645 clip~ -0.99 0.99;
#X obj -26 -4644 clip~ -0.99 0.99;
#X msg -10 -4536 0;
#X obj -53 -4480 *~ 1;
#X obj -86 -4481 *~ 1;
#X obj -198 -4529 vu 15 120 empty empty -1 -8 0 10 -66577 -1 1 0;
#X obj -163 -4483 env~;
#X obj -129 -4482 env~;
#X obj -9 -4512 hsl 128 15 0 127 0 0 empty empty empty -2 -8 0 10 -262144
-1 -1 11600 1;
#X obj -12 -4492 / 127;
#X text 22 -4535 MUTE;
#X text 401 -4849 make sure you turn the volume up here;
#X text 149 -4512 make sure you turn the volume up here;
#X obj -33 -4964 print ASDF;
#X connect 0 0 9 0;
#X connect 2 0 10 0;
#X connect 2 1 11 0;
#X connect 3 0 4 0;
#X connect 3 0 4 1;
#X connect 5 0 6 0;
#X connect 5 1 6 1;
#X connect 7 0 8 0;
#X connect 7 1 8 1;
#X connect 8 0 2 0;
#X connect 8 1 2 1;
#X connect 9 3 7 0;
#X connect 10 0 14 0;
#X connect 11 0 13 0;
#X connect 12 0 13 1;
#X connect 12 0 14 1;
#X connect 13 0 1 1;
#X connect 13 0 17 0;
#X connect 14 0 1 0;
#X connect 14 0 16 0;
#X connect 16 0 15 0;
#X connect 17 0 15 1;
#X connect 18 0 19 0;
#X connect 19 0 13 1;
#X connect 19 0 14 1;
