#N canvas 183 275 777 658 10;
#X obj -216 -5141 dumpOSC 9123;
#X obj -69 -4626 dac~;
#N canvas 618 27 450 300 freeverb 0;
#X obj 167 164 inlet~;
#X obj 163 240 outlet~;
#X obj 226 240 outlet~;
#X obj 166 206 freeverb~;
#X obj 244 78 loadbang;
#X msg 244 116 dry 0.7;
#X msg 305 117 wet 0.5;
#X obj 218 160 inlet~;
#X connect 0 0 3 0;
#X connect 3 0 1 0;
#X connect 3 1 2 0;
#X connect 4 0 5 0;
#X connect 4 0 6 0;
#X connect 5 0 3 0;
#X connect 6 0 3 0;
#X connect 7 0 3 1;
#X restore -86 -4674 pd freeverb;
#X obj -190 -5042 simplenotes;
#X obj -204 -4882 vol;
#X obj -216 -5115 OSCroute /collision /beat /frame;
#X obj 68 -5050 ambience;
#X obj 73 -4872 vol;
#X connect 0 0 5 0;
#X connect 2 0 1 0;
#X connect 2 1 1 1;
#X connect 3 0 4 0;
#X connect 3 0 4 1;
#X connect 4 0 1 0;
#X connect 4 1 1 1;
#X connect 5 0 3 0;
#X connect 5 2 6 0;
#X connect 6 0 7 0;
#X connect 6 1 7 1;
#X connect 7 0 2 0;
#X connect 7 1 2 1;
