#N canvas 50 82 450 300 10;
#X obj 91 74 osc~;
#X obj 152 28 mtof~;
#X obj 191 75 osc~;
#X obj 145 169 outlet~;
#X obj 153 -16 inlet~;
#X obj 191 46 *~ 4;
#X obj 144 138 *~ 0;
#X connect 0 0 6 0;
#X connect 1 0 0 0;
#X connect 1 0 5 0;
#X connect 2 0 6 0;
#X connect 4 0 1 0;
#X connect 5 0 2 0;
#X connect 6 0 3 0;
