#N canvas 824 22 801 745 10;
#N canvas 0 22 450 278 (subpatch) 0;
#X array notes 100 float 3;
#A 0 0 5 12 17 12 5 0 24 27 29 36 39 41 48 51 0 0 0 0 0 0 0 0 0 0 0
0 0 0 0 0 0 0 0 0 0 0 0 0 0 0 0 0 0 0 0 0 0 0 0 0 0 0 0 0 0 0 0 0 0
0 0 0 0 0 0 0 0 0 0 0 0 0 0 0 0 0 0 0 0 0 0 0 0 0 0 0 0 0 0 0 0 0 0
0 0 0 0 0 0;
#X coords 0 0 100 200 200 140 1 0 0;
#X restore -47 -4971 graph;
#X obj -408 -5452 unpack f f f f;
#X obj -409 -5342 pack f f f f f;
#X obj -275 -5070 +~ 0;
#X obj -409 -5371 poly 16 1;
#X obj -409 -5317 route 1 2 3 4 5 6 7 8 9 10 11 12 13 14 15 16;
#X obj -275 -5030 *~ 0.9;
#X obj -498 -5317 print debug;
#N canvas 0 22 450 278 (subpatch) 0;
#X array chords 4 float 3;
#A 0 0 7 0 5;
#X coords 0 0 4 200 200 140 1 0 0;
#X restore -86 -5381 graph;
#X obj -270 -5473 inlet;
#X obj -354 -4896 outlet~;
#X obj -512 -5158 simplesynth;
#X obj -596 -5158 simplesynth;
#X obj -432 -5158 simplesynth;
#X obj -348 -5158 simplesynth;
#X obj -555 -5134 simplesynth;
#X obj -471 -5134 simplesynth;
#X obj -391 -5134 simplesynth;
#X obj -307 -5134 simplesynth;
#X obj -265 -5159 simplesynth;
#X obj -181 -5159 simplesynth;
#X obj -101 -5159 simplesynth;
#X obj -17 -5159 simplesynth;
#X obj -224 -5135 simplesynth;
#X obj -140 -5135 simplesynth;
#X obj -60 -5135 simplesynth;
#X obj 24 -5135 simplesynth;
#X connect 1 0 4 0;
#X connect 1 1 4 1;
#X connect 1 2 2 3;
#X connect 1 3 2 4;
#X connect 2 0 5 0;
#X connect 3 0 6 0;
#X connect 4 0 2 0;
#X connect 4 1 2 1;
#X connect 4 2 2 2;
#X connect 5 0 12 0;
#X connect 5 1 15 0;
#X connect 5 2 11 0;
#X connect 5 3 16 0;
#X connect 5 4 13 0;
#X connect 5 5 17 0;
#X connect 5 6 14 0;
#X connect 5 7 18 0;
#X connect 5 8 19 0;
#X connect 5 9 23 0;
#X connect 5 10 20 0;
#X connect 5 11 24 0;
#X connect 5 12 21 0;
#X connect 5 13 25 0;
#X connect 5 14 22 0;
#X connect 5 15 26 0;
#X connect 6 0 10 0;
#X connect 9 0 1 0;
#X connect 11 0 3 0;
#X connect 12 0 3 0;
#X connect 13 0 3 0;
#X connect 14 0 3 0;
#X connect 15 0 3 0;
#X connect 16 0 3 0;
#X connect 17 0 3 0;
#X connect 18 0 3 0;
#X connect 19 0 3 0;
#X connect 20 0 3 0;
#X connect 21 0 3 0;
#X connect 22 0 3 0;
#X connect 23 0 3 0;
#X connect 24 0 3 0;
#X connect 25 0 3 0;
#X connect 26 0 3 0;
