#N canvas 659 140 801 745 10;
#X obj -409 -5513 dumpOSC 9123;
#X obj -409 -5487 OSCroute /collision;
#X obj -310 -4800 dac~;
#N canvas 0 22 450 278 (subpatch) 0;
#X array notes 100 float 3;
#A 0 0 3 5 7 12 15 17 24 27 29 36 39 41 48 51 0 0 0 0 0 0 0 0 0 0 0
0 0 0 0 0 0 0 0 0 0 0 0 0 0 0 0 0 0 0 0 0 0 0 0 0 0 0 0 0 0 0 0 0 0
0 0 0 0 0 0 0 0 0 0 0 0 0 0 0 0 0 0 0 0 0 0 0 0 0 0 0 0 0 0 0 0 0 0
0 0 0 0 0 0;
#X coords 0 0 100 200 200 140 1 0 0;
#X restore -110 -4954 graph;
#X obj -409 -5453 unpack f f f f;
#X obj -409 -5342 pack f f f f f;
#X obj -275 -5070 +~ 0;
#X obj -409 -5371 poly 16 1;
#X obj -409 -5317 route 1 2 3 4 5 6 7 8 9 10 11 12 13 14 15 16;
#N canvas 618 27 450 300 freeverb 0;
#X obj 167 164 inlet~;
#X obj 163 240 outlet~;
#X obj 226 240 outlet~;
#X obj 166 206 freeverb~;
#X obj 244 78 loadbang;
#X msg 244 116 dry 0.7;
#X msg 305 117 wet 0.5;
#X connect 0 0 3 0;
#X connect 0 0 3 1;
#X connect 3 0 1 0;
#X connect 3 1 2 0;
#X connect 4 0 5 0;
#X connect 4 0 6 0;
#X connect 5 0 3 0;
#X connect 6 0 3 0;
#X restore -327 -4848 pd freeverb;
#X obj -275 -5030 *~ 0.9;
#X obj -498 -5317 print debug;
#X obj -596 -5158 simplesynth;
#X obj -512 -5158 simplesynth;
#X obj -432 -5158 simplesynth;
#X obj -348 -5158 simplesynth;
#X obj -555 -5134 simplesynth;
#X obj -471 -5134 simplesynth;
#X obj -391 -5134 simplesynth;
#X obj -307 -5134 simplesynth;
#X obj -265 -5159 simplesynth;
#X obj -181 -5159 simplesynth;
#X obj -101 -5159 simplesynth;
#X obj -17 -5159 simplesynth;
#X obj -224 -5135 simplesynth;
#X obj -140 -5135 simplesynth;
#X obj -60 -5135 simplesynth;
#X obj 24 -5135 simplesynth;
#X connect 0 0 1 0;
#X connect 1 0 4 0;
#X connect 4 0 7 0;
#X connect 4 1 7 1;
#X connect 4 2 5 3;
#X connect 4 3 5 4;
#X connect 5 0 8 0;
#X connect 5 0 11 0;
#X connect 6 0 10 0;
#X connect 7 0 5 0;
#X connect 7 1 5 1;
#X connect 7 2 5 2;
#X connect 8 0 12 0;
#X connect 8 1 16 0;
#X connect 8 2 13 0;
#X connect 8 3 17 0;
#X connect 8 4 14 0;
#X connect 8 5 18 0;
#X connect 8 6 15 0;
#X connect 8 7 19 0;
#X connect 8 8 20 0;
#X connect 8 9 24 0;
#X connect 8 10 21 0;
#X connect 8 11 25 0;
#X connect 8 12 22 0;
#X connect 8 13 26 0;
#X connect 8 14 23 0;
#X connect 8 15 27 0;
#X connect 9 0 2 0;
#X connect 9 1 2 1;
#X connect 10 0 9 0;
#X connect 12 0 6 0;
#X connect 13 0 6 0;
#X connect 14 0 6 0;
#X connect 15 0 6 0;
#X connect 16 0 6 0;
#X connect 17 0 6 0;
#X connect 18 0 6 0;
#X connect 19 0 6 0;
#X connect 20 0 6 0;
#X connect 21 0 6 0;
#X connect 22 0 6 0;
#X connect 23 0 6 0;
#X connect 24 0 6 0;
#X connect 25 0 6 0;
#X connect 26 0 6 0;
#X connect 27 0 6 0;
