#N canvas 143 367 557 515 10;
#X obj 44 193 sig~ 400;
#X obj 148 432 *~;
#X obj 254 415 vline~;
#X obj 254 246 clip 0 1;
#X obj 94 45 inlet;
#X obj 136 481 outlet~;
#X obj 44 168 mtof;
#X obj 44 95 tabread notes;
#X msg 254 378 \$1 30 \, 0 100 100;
#X obj 96 283 phasor~;
#X obj 197 135 moses 0.91;
#X obj 45 262 osc~;
#X obj 96 260 *~ 2.001;
#X obj 96 306 bp~ 1000 2;
#X obj 254 196 - 15;
#X obj 254 221 / 25;
#X obj 94 72 unpack f f f f f;
#X obj 91 143 tabread chords;
#X obj 44 140 + 0;
#X floatatom 141 121 5 0 0 0 - - -;
#X floatatom 182 99 5 0 0 0 - - -;
#X obj 91 120 mod 4;
#X obj 44 116 + 54;
#X obj 144 461 *~ 0.2;
#X text 234 27 1: shape ID 2: velocity of collision 3: group ID 4:
not sure. 5: not sure;
#X text 208 323 put stuff here.;
#X connect 0 0 11 0;
#X connect 0 0 12 0;
#X connect 1 0 23 0;
#X connect 2 0 1 1;
#X connect 3 0 8 0;
#X connect 4 0 16 0;
#X connect 6 0 0 0;
#X connect 7 0 22 0;
#X connect 8 0 2 0;
#X connect 9 0 13 0;
#X connect 10 1 14 0;
#X connect 11 0 1 0;
#X connect 12 0 9 0;
#X connect 13 0 1 0;
#X connect 14 0 15 0;
#X connect 15 0 3 0;
#X connect 16 0 7 0;
#X connect 16 1 10 0;
#X connect 16 2 20 0;
#X connect 16 2 21 0;
#X connect 17 0 18 1;
#X connect 18 0 6 0;
#X connect 21 0 17 0;
#X connect 21 0 19 0;
#X connect 22 0 18 0;
#X connect 23 0 5 0;
