#N canvas 289 159 608 574 10;
#X obj 212 126 dumpOSC 9123;
#X obj 264 157 print;
#X obj 55 148 OSCroute /collision;
#X obj 82 312 sig~ 400;
#X obj 93 479 dac~;
#X obj 89 442 *~;
#X obj 215 413 vline~;
#X msg 252 352 1 50 \, 0 50 100;
#X obj 94 239 t f b;
#X obj 57 287 mtof;
#X obj 197 270 print asdf;
#X obj 125 398 *~;
#X obj 142 363 sig~ 1;
#X obj 154 316 clip 0 1;
#X obj 73 210 tabread notes;
#N canvas 0 22 450 278 (subpatch) 0;
#X array notes 100 float 1;
#A 0 0 3 5 7 12 15 17 24 27 29 36 39 41 48 51 0 0 0 0 0 0 0 0 0 0 0
0 0 0 0 0 0 0 0 0 0 0 0 0 0 0 0 0 0 0 0 0 0 0 0 0 0 0 0 0 0 0 0 0 0
0 0 0 0 0 0 0 0 0 0 0 0 0 0 0 0 0 0 0 0 0 0 0 0 0 0 0 0 0 0 0 0 0 0
0 0 0 0 0 0;
#X coords 0 1 99 -1 200 140 1 0 0;
#X restore 349 120 graph;
#X obj 84 340 osc~;
#X obj 53 265 + 50;
#X obj 54 182 unpack f f f f;
#X obj 152 281 / 20;
#X connect 0 0 1 0;
#X connect 0 0 2 0;
#X connect 2 0 18 0;
#X connect 3 0 16 0;
#X connect 5 0 4 0;
#X connect 5 0 4 1;
#X connect 6 0 5 1;
#X connect 7 0 6 0;
#X connect 8 0 17 0;
#X connect 8 1 7 0;
#X connect 9 0 3 0;
#X connect 11 0 5 0;
#X connect 12 0 11 1;
#X connect 13 0 12 0;
#X connect 14 0 8 0;
#X connect 16 0 11 0;
#X connect 17 0 9 0;
#X connect 18 0 14 0;
#X connect 18 1 10 0;
#X connect 18 1 19 0;
#X connect 19 0 13 0;
