#N canvas 143 367 557 515 10;
#X obj 100 340 sig~ 400;
#X obj 148 432 *~;
#X obj 234 417 vline~;
#X obj 266 321 clip 0 1;
#X obj 102 368 osc~;
#X obj 264 298 / 20;
#X obj 94 45 inlet;
#X obj 136 481 outlet~;
#X obj 144 461 *~ 0.2;
#X obj 48 251 mtof;
#X obj 48 208 tabread notes;
#X obj 48 229 + 50;
#X obj 94 72 unpack f f f f;
#X obj 101 185 t f b;
#X obj 143 136 moses 0.01;
#X msg 271 356 \$1 30 \, 0 100 100;
#X connect 0 0 4 0;
#X connect 1 0 8 0;
#X connect 2 0 1 1;
#X connect 3 0 15 0;
#X connect 4 0 1 0;
#X connect 5 0 3 0;
#X connect 6 0 12 0;
#X connect 8 0 7 0;
#X connect 9 0 0 0;
#X connect 10 0 11 0;
#X connect 11 0 9 0;
#X connect 12 0 13 0;
#X connect 12 1 14 0;
#X connect 13 0 10 0;
#X connect 14 1 5 0;
#X connect 15 0 2 0;
