#N canvas 0 22 450 300 10;
#X obj 117 244 outlet~;
#X obj 180 244 outlet~;
#X obj 117 181 rjlib/e_pan;
#X obj 117 30 inlet;
#X obj 117 56 unpack f f f f;
#X obj 117 130 strings;
#X connect 2 0 0 0;
#X connect 2 1 1 0;
#X connect 3 0 4 0;
#X connect 4 0 5 0;
#X connect 4 1 5 1;
#X connect 4 3 2 1;
#X connect 5 0 2 0;
