#N canvas 529 306 658 577 10;
#X obj 305 321 +~;
#X obj 253 280 -~ 0.5;
#X obj 339 280 -~ 0.5;
#X obj 305 348 bp~ 660 3;
#X obj 131 266 +~;
#X obj 170 225 -~ 0.125;
#X obj 84 225 -~ 0.125;
#X obj 170 373 freeverb~;
#X obj 304 380 *~ 0.3;
#X msg 67 325 roomsize \$1;
#X msg 48 356 damping \$1;
#X obj 312 228 +~ 1;
#X obj 252 252 phasor~;
#X obj 338 252 phasor~;
#X obj 169 345 *~ 0.4;
#X obj 281 176 mtof;
#X floatatom 281 152 5 0 0 0 - - -;
#X floatatom 313 201 5 0 0 0 - - -;
#X obj 154 476 -~;
#X floatatom 232 391 5 0 0 0 - - -;
#X obj 232 243 vsl 15 128 0 1 0 0 empty empty empty 0 -9 0 10 -262144
-1 -1 0 1;
#X obj 169 413 *~;
#X obj 288 467 *~;
#X obj 132 301 bp~ 200 0.5;
#X text 336 151 put midi number of high tone here (A Major chord preferred)
;
#X text 40 290 lower Q more brutality;
#X text 204 435 0 is bass 1 is high;
#X obj 411 220 organ;
#X obj 226 513 *~ 0.2;
#X obj 83 197 phasor~;
#X obj 169 197 phasor~ 55;
#X obj 165 163 +~ 0.25;
#X floatatom 114 125 5 0 0 0 - - -;
#X obj 106 149 mtof;
#X text 153 135 33 is low 'A';
#X obj 95 97 inlet;
#X obj 277 121 inlet;
#X obj 232 100 inlet;
#X obj 226 539 outlet~;
#X connect 0 0 3 0;
#X connect 1 0 0 0;
#X connect 2 0 0 1;
#X connect 3 0 8 0;
#X connect 4 0 23 0;
#X connect 5 0 4 1;
#X connect 6 0 4 0;
#X connect 7 0 21 0;
#X connect 7 0 18 0;
#X connect 8 0 22 1;
#X connect 9 0 7 0;
#X connect 10 0 7 0;
#X connect 11 0 13 0;
#X connect 12 0 1 0;
#X connect 13 0 2 0;
#X connect 14 0 7 0;
#X connect 15 0 12 0;
#X connect 15 0 11 0;
#X connect 15 0 17 0;
#X connect 16 0 15 0;
#X connect 16 0 27 0;
#X connect 18 0 28 0;
#X connect 19 0 21 1;
#X connect 19 0 22 0;
#X connect 20 0 19 0;
#X connect 21 0 18 1;
#X connect 22 0 28 0;
#X connect 23 0 14 0;
#X connect 27 0 3 0;
#X connect 28 0 38 0;
#X connect 29 0 6 0;
#X connect 30 0 5 0;
#X connect 31 0 30 0;
#X connect 32 0 33 0;
#X connect 33 0 31 0;
#X connect 33 0 29 0;
#X connect 35 0 32 0;
#X connect 36 0 16 0;
#X connect 37 0 19 0;
