#N canvas 399 216 450 300 10;
#X obj 106 115 hsl 128 15 0 127 0 0 empty empty empty -2 -8 0 10 -262144
-1 -1 0 1;
#X obj 116 89 inlet~;
#X obj 179 86 inlet~;
#X obj 126 151 / 127;
#X obj 130 186 *~ 0;
#X obj 178 184 *~ 0;
#X obj 117 221 outlet~;
#X obj 182 221 outlet~;
#X connect 0 0 3 0;
#X connect 1 0 4 0;
#X connect 2 0 5 0;
#X connect 3 0 4 1;
#X connect 3 0 5 1;
#X connect 4 0 6 0;
#X connect 5 0 7 0;
#X coords 0 -1 1 1 140 40 1 100 100;
