#N canvas 883 19 624 858 10;
#X obj 24 -384 tgl 15 0 empty empty empty 17 7 0 10 -262144 -1 -1 1
1;
#X obj 24 -318 s;
#X obj 127 -386 bng 15 250 50 0 empty empty empty 17 7 0 10 -262144
-1 -1;
#X text 120 -402 reset;
#X msg 127 -358 0;
#X obj 127 -318 s reset;
#X obj 24 -356 metro 100;
#N canvas 0 0 900 787 bass 0;
#N canvas 0 0 450 300 (subpatch) 0;
#X array bass 48 float 3;
#A 0 62 62 62 62 62 62 62 62 62 62 62 62 67 67 67 67 67 67 67 67 67
67 67 67 60 60 60 60 60 60 60 60 60 60 60 60 57 57 57 57 57 57 57 57
57 57 57 57;
#X coords 0 0 48 127 200 140 1;
#X restore 431 -384 graph;
#X obj 397 228 s_buzz;
#X obj 489 87 hsl 128 15 0 0.9 0 0 empty empty empty -2 -8 0 10 -262144
-1 -1 2400 1;
#X obj 486 117 moses 1;
#X text 501 68 Harmonicity-Env;
#X floatatom 494 141 5 0 0 0 - - -;
#X obj 486 212 line~;
#X obj 486 188 pack 0 100;
#X floatatom 431 142 5 0 0 0 - - -;
#X obj 398 270 *~;
#X obj 462 255 hsl 128 15 0 1 0 0 empty empty empty -2 -8 0 10 -262144
-1 -1 8900 1;
#X text 456 237 volume;
#X obj 479 -179 f;
#X obj 512 -179 + 1;
#X floatatom 427 -134 5 0 0 0 - - -;
#X floatatom 423 -87 5 0 0 0 - - -;
#X obj 479 -19 int;
#X floatatom 548 -40 5 0 0 0 - - -;
#X obj 479 -204 r;
#X obj 479 -135 mod 48;
#X obj 479 9 mtof;
#X obj 479 -104 tabread bass;
#X obj 479 -57 - 24;
#X text 444 55 Harmonicity-Env;
#X obj 479 35 s b0;
#X obj 397 125 r b0;
#X obj 401 -196 r reset;
#X obj 397 320 soundoutput;
#X obj 398 295 lop~ 100;
#X connect 1 0 9 0;
#X connect 2 0 3 0;
#X connect 3 0 5 0;
#X connect 3 0 7 0;
#X connect 6 0 1 1;
#X connect 7 0 6 0;
#X connect 9 0 28 0;
#X connect 10 0 9 1;
#X connect 12 0 13 0;
#X connect 12 0 19 0;
#X connect 13 0 12 1;
#X connect 16 0 20 0;
#X connect 18 0 12 0;
#X connect 19 0 14 0;
#X connect 19 0 21 0;
#X connect 20 0 24 0;
#X connect 21 0 15 0;
#X connect 21 0 22 0;
#X connect 22 0 16 0;
#X connect 22 0 17 0;
#X connect 25 0 8 0;
#X connect 25 0 1 0;
#X connect 26 0 12 0;
#X connect 28 0 27 0;
#X restore 287 -454 pd bass;
#N canvas 455 5 535 766 chortpart1 1;
#X obj -650 -153 f;
#X obj -617 -153 + 1;
#X floatatom -702 -108 5 0 0 0 - - -;
#X floatatom -706 -61 5 0 0 0 - - -;
#X obj -650 7 int;
#X floatatom -581 -14 5 0 0 0 - - -;
#X obj -650 -178 r;
#X obj -650 61 s ch1;
#X obj -650 -109 mod 48;
#X obj -650 35 mtof;
#N canvas 0 0 450 300 (subpatch) 0;
#X array chordpart1 48 float 3;
#A 0 53 53 53 53 53 53 53 53 53 53 53 53 53 53 53 53 53 53 53 53 53
53 53 53 52 52 52 52 52 52 52 52 52 52 52 52 55 55 55 55 55 55 55 55
55 55 55 55;
#X coords 0 0 48 127 200 140 1;
#X restore -710 -356 graph;
#X obj -726 245 s_buzz;
#X obj -634 104 hsl 128 15 0 0.9 0 0 empty empty empty -2 -8 0 10 -262144
-1 -1 3500 1;
#X obj -637 134 moses 1;
#X text -622 85 Harmonicity-Env;
#X floatatom -629 158 5 0 0 0 - - -;
#X obj -637 229 line~;
#X obj -637 205 pack 0 100;
#X obj -726 142 r ch1;
#X floatatom -692 159 5 0 0 0 - - -;
#X obj -725 287 *~;
#X obj -661 272 hsl 128 15 0 1 0 0 empty empty empty -2 -8 0 10 -262144
-1 -1 10800 1;
#X text -667 254 volume;
#X obj -705 -169 r reset;
#X obj -650 -31 + 0;
#X obj -650 -78 tabread chordpart1;
#X obj -726 337 soundoutput;
#X obj -454 129 e_tremolo mtrem;
#N canvas 167 56 985 542 asdf 0;
#X obj 278 104 inlet;
#X obj 278 152 u_dispatch \$0 dry;
#X obj 338 101 u_loader e_tremolo-\$1 \$0;
#X obj 278 131 u_dispatch \$0 freq;
#X obj 86 186 +~ 1;
#X obj 86 213 *~ 0.5;
#X obj 63 245 *~;
#X obj 63 78 inlet~;
#X obj 63 320 outlet~;
#X obj 86 132 r \$0-freq;
#X text 232 213 Simple tremolo TODO: add depth param;
#N canvas 172 83 586 377 LICENSE-GPL 0;
#X text 57 88 This program is free software: you can redistribute it
and/or modify it under the terms of the GNU General Public License
as published by the Free Software Foundation \, either version 3 of
the License \, or (at your option) any later version.;
#X text 58 168 This program is distributed in the hope that it will
be useful \, but WITHOUT ANY WARRANTY \; without even the implied warranty
of MERCHANTABILITY or FITNESS FOR A PARTICULAR PURPOSE. See the GNU
General Public License for more details.;
#X text 57 261 You should have received a copy of the GNU General Public
License along with this program. If not \, see <http://www.gnu.org/licenses/>.
;
#X text 61 54 Copyright (C) 2009 \, Reality Jockey Ltd.;
#X text 60 325 See the file LICENSE.txt for the full license text.
;
#X restore 473 48 pd LICENSE-GPL;
#X obj 109 263 r \$0-dry;
#X obj 63 284 c_xfade;
#X obj 86 162 osc 5;
#X obj 261 341 osc;
#X connect 0 0 3 0;
#X connect 3 0 1 0;
#X connect 4 0 5 0;
#X connect 5 0 6 1;
#X connect 6 0 13 0;
#X connect 7 0 6 0;
#X connect 7 0 13 1;
#X connect 9 0 14 0;
#X connect 12 0 13 2;
#X connect 13 0 8 0;
#X connect 14 0 4 0;
#X restore -475 177 pd asdf;
#X connect 0 0 1 0;
#X connect 0 0 8 0;
#X connect 1 0 0 1;
#X connect 4 0 9 0;
#X connect 6 0 0 0;
#X connect 8 0 2 0;
#X connect 8 0 25 0;
#X connect 9 0 7 0;
#X connect 11 0 20 0;
#X connect 12 0 13 0;
#X connect 13 0 15 0;
#X connect 13 0 17 0;
#X connect 16 0 11 1;
#X connect 17 0 16 0;
#X connect 18 0 19 0;
#X connect 18 0 11 0;
#X connect 20 0 26 0;
#X connect 21 0 20 1;
#X connect 23 0 0 0;
#X connect 24 0 4 0;
#X connect 24 0 5 0;
#X connect 25 0 3 0;
#X connect 25 0 24 0;
#X restore 288 -424 pd chortpart1;
#N canvas 236 6 369 764 chordpart2 0;
#N canvas 0 0 450 300 (subpatch) 0;
#X array chordpart2 48 float 3;
#A 0 57 57 57 57 57 57 57 57 57 57 57 57 56 56 56 56 56 56 56 56 56
56 56 56 59 59 59 59 59 59 59 59 59 59 59 59 58 58 58 58 58 58 58 58
58 58 58 58;
#X coords 0 1 47 127 200 140 1;
#X restore 57 -373 graph;
#X obj 136 -164 f;
#X obj 169 -164 + 1;
#X floatatom 84 -119 5 0 0 0 - - -;
#X floatatom 80 -72 5 0 0 0 - - -;
#X obj 136 -4 int;
#X floatatom 205 -25 5 0 0 0 - - -;
#X obj 136 -189 r;
#X obj 136 -120 mod 48;
#X obj 136 24 mtof;
#X obj 55 227 s_buzz;
#X obj 147 86 hsl 128 15 0 0.9 0 0 empty empty empty -2 -8 0 10 -262144
-1 -1 2900 1;
#X obj 144 116 moses 1;
#X text 159 67 Harmonicity-Env;
#X floatatom 152 140 5 0 0 0 - - -;
#X obj 144 211 line~;
#X obj 144 187 pack 0 100;
#X floatatom 89 141 5 0 0 0 - - -;
#X obj 56 269 *~;
#X obj 120 254 hsl 128 15 0 1 0 0 empty empty empty -2 -8 0 10 -262144
-1 -1 3700 1;
#X text 114 236 volume;
#X obj 136 50 s ch2;
#X obj 55 124 r ch2;
#X obj 84 -180 r reset;
#X obj 136 -89 tabread chordpart2;
#X obj 137 -44 + 0;
#X obj 55 319 soundoutput;
#X connect 1 0 2 0;
#X connect 1 0 8 0;
#X connect 2 0 1 1;
#X connect 5 0 9 0;
#X connect 7 0 1 0;
#X connect 8 0 3 0;
#X connect 8 0 24 0;
#X connect 9 0 21 0;
#X connect 10 0 18 0;
#X connect 11 0 12 0;
#X connect 12 0 14 0;
#X connect 12 0 16 0;
#X connect 15 0 10 1;
#X connect 16 0 15 0;
#X connect 18 0 26 0;
#X connect 19 0 18 1;
#X connect 22 0 17 0;
#X connect 22 0 10 0;
#X connect 23 0 1 0;
#X connect 24 0 4 0;
#X connect 24 0 25 0;
#X connect 25 0 5 0;
#X connect 25 0 6 0;
#X restore 288 -392 pd chordpart2;
#N canvas 175 0 560 752 chordpart3 1;
#N canvas 0 0 450 300 (subpatch) 0;
#X array chordpart3 48 float 1;
#A 0 60 60 60 60 60 60 60 60 60 60 60 60 59 59 59 59 59 59 59 59 59
59 59 59 62 62 62 62 62 62 62 62 62 62 62 62 61 61 61 61 61 61 61 61
61 61 61 61;
#X coords 0 1 47 127 200 140 1;
#X restore -618 -595 graph;
#X obj -544 -388 f;
#X obj -511 -388 + 1;
#X floatatom -596 -343 5 0 0 0 - - -;
#X floatatom -600 -296 5 0 0 0 - - -;
#X obj -544 -228 int;
#X floatatom -475 -249 5 0 0 0 - - -;
#X obj -544 -413 r;
#X obj -544 -344 mod 48;
#X obj -544 -200 mtof;
#X obj -601 -403 r reset;
#X obj -629 4 s_buzz;
#X obj -537 -137 hsl 128 15 0 0.9 0 0 empty empty empty -2 -8 0 10
-262144 -1 -1 3500 1;
#X obj -540 -107 moses 1;
#X text -525 -156 Harmonicity-Env;
#X floatatom -532 -83 5 0 0 0 - - -;
#X obj -540 -12 line~;
#X obj -540 -36 pack 0 100;
#X floatatom -595 -82 5 0 0 0 - - -;
#X obj -628 46 *~;
#X obj -564 31 hsl 128 15 0 1 0 0 empty empty empty -2 -8 0 10 -262144
-1 -1 6600 1;
#X text -570 13 volume;
#X obj -629 -99 r ch3;
#X obj -544 -174 s ch3;
#X obj -544 -313 tabread chordpart3;
#X obj -544 -266 + 0;
#X obj -629 69 e_tremolo mtrem;
#X msg -509 54 freq 0;
#X obj -629 96 soundoutput;
#X connect 1 0 2 0;
#X connect 1 0 8 0;
#X connect 2 0 1 1;
#X connect 5 0 9 0;
#X connect 7 0 1 0;
#X connect 8 0 3 0;
#X connect 8 0 24 0;
#X connect 9 0 23 0;
#X connect 10 0 1 0;
#X connect 11 0 19 0;
#X connect 12 0 13 0;
#X connect 13 0 15 0;
#X connect 13 0 17 0;
#X connect 16 0 11 1;
#X connect 17 0 16 0;
#X connect 19 0 26 0;
#X connect 20 0 19 1;
#X connect 22 0 18 0;
#X connect 22 0 11 0;
#X connect 24 0 4 0;
#X connect 24 0 25 0;
#X connect 25 0 5 0;
#X connect 25 0 6 0;
#X connect 26 0 28 0;
#X connect 27 0 26 1;
#X restore 288 -359 pd chordpart3;
#N canvas 738 3 794 842 melody 0;
#N canvas 0 0 450 300 (subpatch) 0;
#X array melody 48 float 1;
#A 0 0 0 0 0 74 74 77 77 76 76 74 74 79 79 79 76 76 76 77 77 81 81
84 84 88 88 88 88 88 88 88 88 88 88 88 88 88 88 88 88 88 88 88 88 88
88 88 88;
#X coords 0 1 47 127 200 140 1;
#X restore -608 -585 graph;
#X obj -534 -378 f;
#X obj -501 -378 + 1;
#X floatatom -586 -333 5 0 0 0 - - -;
#X floatatom -590 -286 5 0 0 0 - - -;
#X obj -534 -218 int;
#X floatatom -465 -239 5 0 0 0 - - -;
#X obj -534 -403 r;
#X obj -534 -334 mod 48;
#X obj -534 -190 mtof;
#X obj -591 -393 r reset;
#X obj -619 14 s_buzz;
#X obj -527 -127 hsl 128 15 0 0.9 0 0 empty empty empty -2 -8 0 10
-262144 -1 -1 2900 1;
#X obj -530 -97 moses 1;
#X text -515 -146 Harmonicity-Env;
#X floatatom -522 -73 5 0 0 0 - - -;
#X obj -530 -2 line~;
#X obj -530 -26 pack 0 100;
#X floatatom -585 -72 5 0 0 0 - - -;
#X obj -618 56 *~;
#X obj -554 41 hsl 128 15 0 1 0 0 empty empty empty -2 -8 0 10 -262144
-1 -1 2400 1;
#X text -560 23 volume;
#X obj -534 -256 + 0;
#X obj -619 106 soundoutput;
#X obj -619 79 e_tremolo mtrem;
#X msg -499 64 freq 0;
#X obj -534 -303 tabread melody;
#X obj -534 -164 s m0;
#X obj -619 -89 r m0;
#X msg -439 65 freq 11;
#X connect 1 0 2 0;
#X connect 1 0 8 0;
#X connect 2 0 1 1;
#X connect 5 0 9 0;
#X connect 7 0 1 0;
#X connect 8 0 3 0;
#X connect 8 0 26 0;
#X connect 9 0 27 0;
#X connect 10 0 1 0;
#X connect 11 0 19 0;
#X connect 12 0 13 0;
#X connect 13 0 15 0;
#X connect 13 0 17 0;
#X connect 16 0 11 1;
#X connect 17 0 16 0;
#X connect 19 0 24 0;
#X connect 20 0 19 1;
#X connect 22 0 5 0;
#X connect 22 0 6 0;
#X connect 24 0 23 0;
#X connect 25 0 24 1;
#X connect 26 0 4 0;
#X connect 26 0 22 0;
#X connect 28 0 18 0;
#X connect 28 0 11 0;
#X connect 29 0 24 1;
#X restore 291 -334 pd melody;
#X connect 0 0 6 0;
#X connect 2 0 4 0;
#X connect 4 0 5 0;
#X connect 6 0 1 0;
