#N canvas 269 279 1299 842 10;
#X obj 87 187 mtof;
#X obj 251 158 hsl 128 15 0 0.9 0 0 empty empty empty -2 -8 0 10 -262144
-1 -1 0 1;
#X obj 248 219 moses 1;
#X floatatom 256 243 5 0 0 0 - - -;
#X obj 248 314 line~;
#X obj 248 290 pack 0 100;
#X text 81 52 midi value;
#X obj 87 79 inlet;
#X obj 87 114 % 127;
#X obj 248 133 inlet;
#X text 242 108 Harmonicity-Env max-0.9;
#X obj 463 71 inlet;
#X text 458 56 velocity;
#X obj 552 114 inlet;
#X text 547 94 duration;
#X obj 617 115 inlet;
#X text 616 93 volume;
#N canvas 223 22 450 300 soundout 1;
#X obj 90 13 inlet~;
#X obj 90 244 dac~;
#X obj 90 125 *~;
#X obj 154 86 r volume;
#X obj 157 110 hsl 128 15 0 1 0 0 empty empty empty -2 -8 0 10 -262144
-1 -1 0 1;
#X obj 156 38 r~ adsrenv;
#X obj 91 55 *~;
#X obj 205 148 r trem;
#X msg 346 164 freq 0;
#X msg 235 211 freq \$0fasd;
#X obj 90 180 ../rjlib/e_tremolo mtrem;
#X connect 0 0 6 0;
#X connect 2 0 10 0;
#X connect 3 0 4 0;
#X connect 4 0 2 1;
#X connect 5 0 6 1;
#X connect 6 0 2 0;
#X connect 7 0 10 1;
#X connect 8 0 10 1;
#X connect 10 0 1 0;
#X connect 10 0 1 1;
#X restore 86 357 pd soundout;
#X obj 617 140 s volume;
#X text 751 92 attack;
#X obj 750 114 inlet;
#X obj 800 115 inlet;
#X obj 846 114 inlet;
#X obj 902 115 inlet;
#X text 841 95 sustain;
#X text 899 93 release;
#X obj 750 146 vsl 15 128 0 127 0 0 empty empty empty 0 -9 0 10 -262144
-1 -1 0 1;
#X obj 800 145 vsl 15 128 0 127 0 0 empty empty empty 0 -9 0 10 -262144
-1 -1 0 1;
#X obj 846 146 vsl 15 128 0 127 0 0 empty empty empty 0 -9 0 10 -262144
-1 -1 0 1;
#X obj 902 146 vsl 15 128 0 127 0 0 empty empty empty 0 -9 0 10 -262144
-1 -1 0 1;
#X obj 486 162 / 127;
#X obj 486 188 t a a;
#X obj 661 347 s~ adsrenv;
#X text 800 93 decay;
#X obj 441 131 makenote 100 400;
#X obj 513 217 s casdr1;
#X obj 486 242 s cadsr0;
#X obj 661 240 r cadsr0;
#X obj 686 266 r cadsr1;
#N canvas 0 22 450 300 melloSynth 0;
#X restore 218 6 pd melloSynth;
#X obj 969 112 inlet;
#X obj 969 153 s trem;
#X obj 661 317 ../rjlib/c_adsr 1 80 100 80 200;
#X obj 87 331 ../rjlib/s_buzz;
#X connect 0 0 43 0;
#X connect 1 0 2 0;
#X connect 2 0 3 0;
#X connect 2 0 5 0;
#X connect 4 0 43 1;
#X connect 5 0 4 0;
#X connect 7 0 8 0;
#X connect 8 0 34 0;
#X connect 8 0 0 0;
#X connect 9 0 1 0;
#X connect 11 0 34 1;
#X connect 13 0 34 2;
#X connect 15 0 18 0;
#X connect 20 0 26 0;
#X connect 21 0 27 0;
#X connect 22 0 28 0;
#X connect 23 0 29 0;
#X connect 26 0 42 2;
#X connect 27 0 42 3;
#X connect 28 0 42 4;
#X connect 29 0 42 5;
#X connect 30 0 31 0;
#X connect 31 0 36 0;
#X connect 31 1 35 0;
#X connect 34 1 30 0;
#X connect 37 0 42 0;
#X connect 38 0 42 1;
#X connect 40 0 41 0;
#X connect 42 0 32 0;
#X connect 43 0 17 0;
