#N canvas 967 18 476 527 10;
#X text 30 -2 midi;
#X obj 36 103 hsl 128 15 0 0.9 0 0 empty empty empty -2 -8 0 10 -262144
-1 -1 3300 1;
#X text 37 120 velocity;
#X text 44 152 duration in milliseconds;
#X obj 51 196 hsl 128 15 0 1 0 0 empty empty empty -2 -8 0 10 -262144
-1 -1 12700 1;
#X text 50 181 volume;
#X obj 221 50 vsl 15 128 0 127 0 0 empty empty empty 0 -9 0 10 -262144
-1 -1 0 1;
#X obj 267 53 vsl 15 128 0 200 0 0 empty empty empty 0 -9 0 10 -262144
-1 -1 0 1;
#X obj 306 51 vsl 15 128 0 100 0 0 empty empty empty 0 -9 0 10 -262144
-1 -1 0 1;
#X obj 346 52 vsl 15 128 0 600 0 0 empty empty empty 0 -9 0 10 -262144
-1 -1 0 1;
#X obj 221 197 s A;
#X obj 267 199 s D;
#X obj 306 199 s S;
#X obj 346 201 s R;
#X obj 53 216 r A;
#X obj 58 239 r D;
#X obj 63 259 r S;
#X obj 68 284 r R;
#X obj 29 314 mySynth;
#X floatatom 38 138 5 0 0 0 - - -;
#X msg 29 32 0;
#X floatatom 43 171 5 0 0 0 - - -;
#X msg 29 60 61 62;
#X obj 29 -63 inlet;
#X obj 398 200 s T;
#X obj 93 297 r T;
#X msg 401 168 freq 11;
#X msg 401 129 freq 0;
#X connect 1 0 18 1;
#X connect 4 0 18 4;
#X connect 6 0 10 0;
#X connect 7 0 11 0;
#X connect 8 0 12 0;
#X connect 9 0 13 0;
#X connect 14 0 18 5;
#X connect 15 0 18 6;
#X connect 16 0 18 7;
#X connect 17 0 18 8;
#X connect 19 0 18 2;
#X connect 20 0 18 0;
#X connect 21 0 18 3;
#X connect 22 0 18 0;
#X connect 23 0 18 0;
#X connect 25 0 18 9;
#X connect 26 0 24 0;
#X connect 27 0 24 0;
